<?xml version="1.0" standalone="no"?>
<!DOCTYPE svg PUBLIC "-//W3C//DTD SVG 20010904//EN"
 "http://www.w3.org/TR/2001/REC-SVG-20010904/DTD/svg10.dtd">
<svg version="1.0" xmlns="http://www.w3.org/2000/svg"
 width="1496.000000pt" height="558.000000pt" viewBox="0 0 1496.000000 558.000000"
 preserveAspectRatio="xMidYMid meet">

<g transform="translate(0.000000,558.000000) scale(0.100000,-0.100000)"
fill="#000000" stroke="none">
<path d="M805 4775 l-25 -24 0 -1964 0 -1964 23 -21 c23 -21 31 -22 256 -22
l232 0 63 -45 c190 -135 482 -209 931 -235 234 -13 10137 -13 10375 0 387 22
621 70 815 167 49 25 111 61 136 79 l47 34 239 0 c237 0 240 0 261 23 l22 23
0 1963 0 1962 -25 24 -24 25 -6651 0 -6651 0 -24 -25z m1051 -396 c45 -21 84
-81 84 -129 0 -13 -9 -43 -21 -66 -21 -45 -81 -84 -129 -84 -48 0 -108 39
-129 84 -26 53 -26 79 0 132 14 30 32 48 62 63 53 26 80 26 133 0z m481 10
c67 -25 111 -99 98 -165 -8 -45 -57 -100 -101 -114 -100 -33 -209 62 -190 165
12 62 82 124 143 125 12 0 34 -5 50 -11z m-970 -19 c87 -52 83 -198 -6 -245
-98 -50 -211 16 -211 123 0 85 56 142 140 142 27 0 58 -8 77 -20z m7338 -671
c0 -7 -8 -15 -17 -17 -18 -3 -25 18 -11 32 10 10 28 1 28 -15z m-5515 2 c0 -5
-12 -11 -27 -13 -20 -2 -29 -9 -31 -25 -3 -20 1 -23 27 -23 17 0 31 -4 31 -10
0 -5 -13 -10 -30 -10 -29 0 -30 -1 -30 -50 0 -38 -4 -50 -15 -50 -11 0 -15 12
-15 50 0 47 -2 50 -25 50 -14 0 -25 5 -25 10 0 6 11 10 25 10 19 0 25 5 25 23
0 13 5 28 12 35 14 14 78 16 78 3z m110 -76 c0 -78 2 -85 20 -85 11 0 20 -4
20 -10 0 -6 -27 -10 -60 -10 -33 0 -60 4 -60 10 0 6 11 10 25 10 24 0 25 2 25
75 0 68 -2 75 -20 75 -11 0 -20 5 -20 10 0 6 16 10 35 10 l35 0 0 -85z m570
33 l0 -52 29 28 c41 39 61 29 26 -12 l-28 -33 34 -35 c30 -31 31 -34 12 -34
-12 0 -33 14 -47 33 l-26 32 0 -32 c0 -23 -5 -33 -15 -33 -12 0 -15 17 -15 95
0 78 3 95 15 95 11 0 15 -12 15 -52z m1310 -43 c0 -57 -4 -95 -10 -95 -5 0
-10 5 -10 12 0 9 -3 9 -12 0 -38 -38 -95 11 -84 73 7 36 30 55 65 55 16 0 21
6 21 25 0 16 6 25 15 25 12 0 15 -17 15 -95z m270 10 c0 -78 2 -85 20 -85 11
0 20 -4 20 -10 0 -5 -25 -10 -55 -10 -30 0 -55 5 -55 10 0 6 9 10 20 10 18 0
20 7 20 75 0 68 -2 75 -20 75 -11 0 -20 5 -20 10 0 6 16 10 35 10 l35 0 0 -85z
m458 74 c-2 -6 -8 -10 -13 -10 -5 0 -11 4 -13 10 -2 6 4 11 13 11 9 0 15 -5
13 -11z m1432 -84 c0 -78 -3 -95 -15 -95 -8 0 -15 5 -15 12 0 9 -3 9 -12 0 -7
-7 -21 -12 -33 -12 -31 0 -45 19 -45 64 0 48 23 76 62 76 23 0 28 4 28 25 0
16 6 25 15 25 12 0 15 -17 15 -95z m270 10 c0 -78 2 -85 20 -85 11 0 20 -4 20
-10 0 -6 -27 -10 -60 -10 -33 0 -60 4 -60 10 0 6 11 10 25 10 24 0 25 2 25 75
0 68 -2 75 -20 75 -11 0 -20 5 -20 10 0 6 16 10 35 10 l35 0 0 -85z m350 76
c0 -5 -12 -11 -27 -13 -20 -2 -29 -9 -31 -25 -3 -20 1 -23 27 -23 17 0 31 -4
31 -10 0 -5 -13 -10 -30 -10 -29 0 -30 -1 -30 -50 0 -38 -4 -50 -15 -50 -11 0
-15 12 -15 50 0 43 -3 50 -20 50 -11 0 -20 5 -20 10 0 6 9 10 20 10 13 0 20 7
20 19 0 11 7 27 16 35 17 17 74 22 74 7z m-6720 -81 c0 -73 2 -80 20 -80 11 0
20 -4 20 -10 0 -5 -25 -10 -55 -10 -30 0 -55 5 -55 10 0 6 11 10 25 10 24 0
25 2 25 70 0 70 -5 81 -28 58 -6 -6 -14 -9 -18 -6 -5 6 42 37 59 38 4 0 7 -36
7 -80z m960 60 c0 -16 7 -20 30 -20 17 0 30 -4 30 -10 0 -5 -14 -10 -31 -10
-30 0 -30 -1 -27 -47 3 -44 5 -48 31 -51 38 -5 34 -22 -6 -22 -45 0 -57 15
-57 72 0 41 -3 48 -20 48 -11 0 -20 5 -20 10 0 6 9 10 20 10 13 0 20 7 20 20
0 11 7 20 15 20 8 0 15 -9 15 -20z m4486 -20 c19 0 34 -4 34 -10 0 -5 -16 -10
-35 -10 -32 0 -35 -2 -35 -31 0 -44 17 -69 45 -69 14 0 25 -4 25 -10 0 -13
-36 -13 -61 0 -15 8 -19 22 -19 60 0 43 -3 50 -20 50 -11 0 -20 5 -20 10 0 6
9 10 20 10 12 0 20 7 21 18 1 16 2 16 6 0 3 -13 15 -18 39 -18z m-4906 -20
c26 -26 25 -60 -1 -94 -23 -30 -45 -33 -77 -10 -31 21 -31 87 0 108 30 21 54
20 78 -4z m85 10 c14 12 18 12 25 0 7 -11 11 -11 24 -1 26 22 36 3 34 -67 l-2
-67 -3 63 c-3 45 -8 62 -18 62 -16 0 -23 -21 -28 -85 -3 -37 -4 -36 -5 10 -4
94 -42 102 -42 9 0 -30 -4 -54 -10 -54 -6 0 -10 31 -10 73 0 47 3 67 9 58 8
-13 12 -13 26 -1z m522 2 c15 -9 34 -58 26 -66 -4 -3 -26 -6 -50 -6 -23 0 -43
-4 -43 -9 0 -19 31 -33 60 -27 31 6 42 -7 14 -18 -56 -21 -104 9 -104 66 0 49
58 85 97 60z m156 2 c14 -4 17 -17 17 -70 0 -36 -4 -64 -10 -64 -5 0 -10 21
-10 48 0 59 -13 81 -37 66 -13 -8 -19 -26 -21 -63 -2 -36 -7 -51 -18 -51 -11
0 -14 15 -14 69 l0 69 38 0 c20 1 45 -1 55 -4z m167 -3 c0 -6 -14 -11 -32 -13
-44 -4 -46 -24 -4 -38 20 -6 36 -13 36 -15 0 -2 3 -10 6 -18 3 -8 -2 -22 -11
-31 -20 -19 -95 -22 -95 -3 0 7 14 12 37 12 50 0 52 19 3 38 -41 16 -52 41
-28 65 14 14 88 16 88 3z m152 -8 c24 -22 24 -77 -2 -103 -44 -44 -110 -13
-110 52 0 57 70 89 112 51z m168 -3 c13 -24 13 -30 -1 -30 -7 0 -18 8 -25 18
-23 31 -49 3 -52 -57 -2 -36 -7 -51 -18 -51 -11 0 -14 15 -14 68 l0 69 50 1
c39 1 52 -3 60 -18z m443 8 c9 -7 19 -27 23 -43 8 -40 -26 -85 -64 -85 -33 0
-45 8 -61 38 -33 62 46 131 102 90z m72 -35 l8 -48 10 33 c5 17 16 32 23 32 7
0 16 -15 20 -32 6 -29 8 -30 15 -13 4 11 8 32 8 48 1 18 6 27 17 27 12 0 14
-7 10 -27 -3 -16 -8 -47 -11 -70 -8 -52 -29 -57 -48 -11 l-13 33 -12 -33 c-16
-46 -39 -41 -47 11 -3 23 -8 54 -11 70 -4 19 -2 27 9 27 10 0 17 -16 22 -47z
m549 25 c30 -43 21 -58 -34 -58 -49 0 -50 -1 -39 -21 9 -17 17 -20 46 -16 24
4 33 2 30 -6 -5 -18 -69 -20 -91 -4 -26 19 -27 79 -1 107 24 27 70 26 89 -2z
m166 2 c13 -24 13 -30 -1 -30 -7 0 -18 8 -25 18 -23 31 -49 3 -52 -57 -2 -36
-7 -51 -18 -51 -11 0 -14 15 -14 68 l0 69 50 1 c39 1 52 -3 60 -18z m138 8 c7
-7 12 -37 12 -68 l0 -56 -50 -2 c-40 -2 -51 2 -60 18 -14 25 18 60 56 60 19 0
25 4 22 18 -3 12 -13 17 -36 16 -31 -2 -40 5 -25 19 11 12 68 8 81 -5z m162 2
c0 -5 -16 -10 -35 -10 -40 0 -49 -24 -12 -36 24 -7 57 -33 57 -45 0 -4 -7 -15
-16 -23 -19 -19 -94 -22 -94 -3 0 7 14 12 37 12 50 0 52 19 3 38 -41 16 -52
41 -28 65 14 14 88 16 88 2z m318 -62 c2 -43 -1 -68 -8 -68 -6 0 -10 25 -10
61 0 54 -2 60 -15 49 -10 -8 -15 -30 -15 -61 0 -37 -4 -49 -15 -49 -12 0 -15
13 -15 61 0 37 -4 58 -10 54 -5 -3 -10 -31 -10 -61 0 -41 -4 -54 -15 -54 -12
0 -15 14 -15 69 l0 69 63 -2 62 -1 3 -67z m135 60 c9 -7 19 -27 23 -43 8 -40
-26 -85 -64 -85 -33 0 -45 8 -61 38 -33 62 46 131 102 90z m311 -10 c30 -43
21 -58 -34 -58 -49 0 -50 -1 -39 -21 9 -17 17 -20 46 -16 24 4 33 2 30 -6 -5
-18 -69 -20 -91 -4 -26 19 -27 79 -1 107 24 27 70 26 89 -2z m306 9 c0 -7 -12
-12 -27 -12 -41 0 -41 -18 1 -38 37 -18 46 -43 24 -65 -17 -17 -98 -16 -98 2
0 11 10 13 41 9 36 -5 41 -4 37 13 -2 10 -14 21 -27 24 -13 3 -30 15 -38 27
-12 18 -12 23 2 37 20 19 85 22 85 3z m280 -47 c0 -53 2 -60 20 -60 11 0 20
-4 20 -10 0 -5 -22 -10 -50 -10 -27 0 -50 5 -50 10 0 6 9 10 20 10 17 0 20 7
20 50 0 43 -3 50 -20 50 -11 0 -20 5 -20 10 0 6 14 10 30 10 l30 0 0 -60z m90
-25 l-7 -60 -1 75 c-1 43 2 69 7 60 4 -8 5 -42 1 -75z m48 73 c8 -8 15 -8 27
2 14 12 18 11 26 -1 12 -19 11 -129 -1 -129 -6 0 -10 27 -10 60 0 89 -29 79
-41 -15 l-6 -50 -2 63 c-1 49 -4 62 -17 62 -8 0 -12 5 -9 10 8 13 18 13 33 -2z
m140 1 c28 15 38 14 56 -5 39 -39 5 -124 -49 -124 -20 0 -25 -5 -25 -25 0 -14
-4 -25 -10 -25 -6 0 -10 39 -10 98 0 58 4 92 9 83 6 -10 13 -11 29 -2z m199 3
c21 -13 33 -60 23 -86 -9 -26 -38 -46 -64 -46 -47 0 -65 95 -24 124 24 17 46
20 65 8z m95 -3 c2 -7 12 -7 30 2 22 9 31 9 43 -1 17 -14 20 -40 5 -40 -5 0
-10 7 -10 15 0 17 -23 20 -51 5 -15 -8 -19 -22 -19 -60 0 -28 -4 -50 -10 -50
-6 0 -10 30 -10 70 0 39 4 70 9 70 5 0 11 -5 13 -11z m550 -3 c4 -6 8 -37 8
-68 0 -45 -3 -58 -15 -58 -12 0 -15 13 -15 61 0 37 -4 58 -10 54 -5 -3 -10
-31 -10 -61 0 -41 -4 -54 -15 -54 -12 0 -15 13 -15 61 0 54 -2 60 -15 49 -10
-8 -15 -30 -15 -61 0 -37 -4 -49 -15 -49 -12 0 -15 14 -15 69 l0 68 63 0 c34
0 65 -5 69 -11z m140 -3 c24 -22 24 -77 -2 -103 -44 -44 -110 -13 -110 52 0
57 70 89 112 51z m312 -5 c30 -43 21 -58 -34 -58 -27 0 -50 -4 -50 -9 0 -19
31 -33 61 -27 22 4 29 2 27 -7 -3 -6 -21 -13 -41 -15 -61 -5 -94 46 -66 101
16 29 28 37 61 37 17 0 33 -9 42 -22z m626 2 c13 -24 13 -30 -1 -30 -7 0 -18
8 -25 18 -23 31 -49 3 -52 -57 -2 -36 -7 -51 -18 -51 -11 0 -14 15 -14 68 l0
69 50 1 c39 1 52 -3 60 -18z m141 -1 c17 -17 20 -29 15 -58 -3 -20 -13 -42
-23 -48 -23 -18 -68 -16 -87 3 -21 20 -20 83 1 106 22 24 68 23 94 -3z m167
-51 c2 -43 -1 -68 -8 -68 -6 0 -10 25 -10 61 0 54 -2 60 -15 49 -10 -8 -15
-30 -15 -61 0 -37 -4 -49 -15 -49 -12 0 -15 13 -15 61 0 37 -4 58 -10 54 -5
-3 -10 -31 -10 -61 0 -41 -4 -54 -15 -54 -12 0 -15 14 -15 69 l0 69 63 -2 62
-1 3 -67z m290 -9 c-3 -66 -7 -83 -23 -95 -22 -16 -82 -15 -77 1 2 6 12 9 23
7 36 -6 49 16 49 84 l0 64 -35 0 c-19 0 -35 5 -35 10 0 6 23 10 51 10 l51 0
-4 -81z m162 71 c0 -5 -16 -10 -35 -10 -40 0 -49 -24 -12 -36 24 -7 57 -33 57
-45 0 -4 -7 -15 -16 -23 -19 -19 -94 -22 -94 -3 0 7 14 12 37 12 50 0 52 19 3
38 -41 16 -52 41 -28 65 14 14 88 16 88 2z m151 -11 c17 -17 20 -29 15 -58 -3
-20 -13 -42 -23 -48 -23 -18 -68 -16 -87 3 -21 20 -20 83 1 106 22 24 68 23
94 -3z m142 15 c14 -4 17 -17 17 -70 0 -36 -4 -64 -10 -64 -5 0 -10 21 -10 48
0 59 -13 81 -37 66 -13 -8 -19 -26 -21 -63 -2 -36 -7 -51 -18 -51 -11 0 -14
15 -14 69 l0 69 38 0 c20 1 45 -1 55 -4z m-5405 -112 c3 -16 -2 -22 -16 -22
-24 0 -35 23 -19 39 16 16 31 8 35 -17z m919 17 c16 -16 5 -39 -18 -39 -12 0
-19 7 -19 18 0 31 17 41 37 21z m3143 -79 c0 -6 -33 -10 -80 -10 -47 0 -80 4
-80 10 0 6 33 10 80 10 47 0 80 -4 80 -10z m770 0 c0 -6 -33 -10 -80 -10 -47
0 -80 4 -80 10 0 6 33 10 80 10 47 0 80 -4 80 -10z m-215 -161 c0 -7 -8 -15
-17 -17 -18 -3 -25 18 -11 32 10 10 28 1 28 -15z m-6575 2 c0 -5 -12 -11 -27
-13 -20 -2 -29 -9 -31 -25 -3 -20 1 -23 27 -23 17 0 31 -4 31 -10 0 -5 -13
-10 -30 -10 -29 0 -30 -1 -30 -50 0 -27 -4 -50 -10 -50 -5 0 -10 23 -10 50 0
43 -3 50 -20 50 -11 0 -20 5 -20 10 0 6 9 10 20 10 15 0 20 7 20 25 0 13 8 29
18 34 22 13 62 14 62 2z m1700 0 c0 -5 -12 -11 -27 -13 -20 -2 -29 -9 -31 -25
-3 -20 1 -23 27 -23 17 0 31 -4 31 -10 0 -5 -13 -10 -30 -10 -29 0 -30 -1 -30
-50 0 -38 -4 -50 -15 -50 -11 0 -15 12 -15 50 0 47 -2 50 -25 50 -14 0 -25 5
-25 10 0 6 11 10 25 10 19 0 25 5 25 23 0 13 5 28 12 35 14 14 78 16 78 3z
m100 -76 c0 -78 2 -85 20 -85 11 0 20 -4 20 -10 0 -5 -25 -10 -55 -10 -30 0
-55 5 -55 10 0 6 9 10 20 10 18 0 20 7 20 75 0 59 -3 75 -14 75 -8 0 -18 5
-21 10 -4 6 8 10 29 10 l36 0 0 -85z m570 28 l0 -57 33 32 c41 40 72 44 34 4
-15 -15 -27 -32 -27 -37 0 -5 14 -24 32 -42 27 -28 29 -33 13 -33 -11 0 -34
14 -52 32 l-33 32 0 -32 c0 -18 -4 -32 -10 -32 -6 0 -10 38 -10 95 0 57 4 95
10 95 6 0 10 -26 10 -57z m1320 -36 l0 -94 -50 -1 c-39 -1 -52 3 -60 18 -28
52 4 120 55 120 20 0 25 5 25 25 0 16 6 25 15 25 12 0 15 -17 15 -93z m270 8
c0 -78 2 -85 20 -85 11 0 20 -4 20 -10 0 -6 -27 -10 -60 -10 -33 0 -60 4 -60
10 0 6 11 10 25 10 24 0 25 2 25 75 0 68 -2 75 -20 75 -11 0 -20 5 -20 10 0 6
16 10 35 10 l35 0 0 -85z m458 73 c-6 -18 -28 -21 -28 -4 0 9 7 16 16 16 9 0
14 -5 12 -12z m2462 -73 c0 -78 2 -85 20 -85 11 0 20 -4 20 -10 0 -5 -25 -10
-55 -10 -30 0 -55 5 -55 10 0 6 9 10 20 10 18 0 20 7 20 75 0 59 -3 75 -14 75
-8 0 -18 5 -21 10 -4 6 8 10 29 10 l36 0 0 -85z m810 -10 c0 -57 -4 -95 -10
-95 -5 0 -10 5 -10 12 0 9 -3 9 -12 0 -38 -38 -95 11 -84 73 7 36 30 55 65 55
16 0 21 6 21 25 0 16 6 25 15 25 12 0 15 -17 15 -95z m270 10 c0 -78 2 -85 20
-85 11 0 20 -4 20 -10 0 -5 -25 -10 -55 -10 -30 0 -55 5 -55 10 0 6 9 10 20
10 18 0 20 7 20 75 0 68 -2 75 -20 75 -11 0 -20 5 -20 10 0 6 16 10 35 10 l35
0 0 -85z m-8510 55 c29 -29 25 -45 -21 -95 l-42 -45 47 0 c25 0 46 -4 46 -10
0 -5 -25 -10 -55 -10 -30 0 -55 3 -55 6 0 3 18 27 40 52 29 33 40 53 38 71 -3
23 -7 26 -40 25 -43 -1 -48 3 -15 16 32 13 35 12 57 -10z m1250 0 c0 -16 7
-20 35 -20 19 0 35 -4 35 -10 0 -5 -16 -10 -35 -10 -33 0 -35 -2 -35 -34 0
-52 9 -66 41 -66 16 0 29 -4 29 -10 0 -12 -60 -13 -79 -1 -7 5 -16 32 -19 60
-3 34 -9 51 -18 51 -8 0 -14 5 -14 10 0 6 6 10 14 10 7 0 16 9 19 20 3 11 10
20 16 20 6 0 11 -9 11 -20z m4491 -20 c16 0 29 -4 29 -10 0 -5 -14 -10 -31
-10 -30 0 -30 -1 -27 -47 3 -44 5 -48 31 -51 33 -4 36 -22 4 -22 -35 0 -47 19
-47 72 0 41 -3 48 -20 48 -11 0 -20 5 -20 10 0 6 9 10 20 10 14 0 20 7 21 23
l2 22 4 -22 c3 -18 11 -23 34 -23z m339 28 c0 -8 -14 -13 -37 -13 -48 0 -58
-29 -16 -47 61 -26 79 -60 47 -92 -19 -20 -104 -22 -104 -3 0 8 15 12 42 12
36 0 43 3 43 19 0 13 -14 27 -40 40 -44 23 -56 54 -30 80 20 19 95 22 95 4z
m870 -8 c0 -16 7 -20 30 -20 17 0 30 -4 30 -10 0 -5 -14 -10 -31 -10 -30 0
-30 -1 -27 -47 3 -44 5 -48 31 -51 38 -5 34 -22 -6 -22 -45 0 -57 15 -57 72 0
41 -3 48 -20 48 -11 0 -20 5 -20 10 0 6 9 10 20 10 13 0 20 7 20 20 0 11 7 20
15 20 8 0 15 -9 15 -20z m912 -21 l12 -42 18 42 c25 61 44 53 52 -20 10 -96 8
-119 -9 -119 -12 0 -15 15 -16 68 l-1 67 -16 -37 c-20 -44 -37 -49 -46 -13
-10 41 -26 19 -26 -36 0 -32 -4 -49 -12 -49 -10 0 -12 23 -10 90 3 80 5 90 22
90 14 0 23 -12 32 -41z m-7219 -8 c30 14 57 -1 57 -30 -1 -13 -3 -13 -15 3
-12 16 -20 18 -43 10 -24 -8 -28 -16 -33 -64 -6 -54 -6 -54 -7 20 -1 43 2 69
7 62 6 -10 13 -11 34 -1z m184 1 c21 -13 33 -60 23 -86 -9 -26 -38 -46 -64
-46 -47 0 -65 95 -24 124 24 17 46 20 65 8z m98 -2 c14 12 18 12 25 0 7 -11
11 -11 24 -1 26 22 36 3 34 -67 l-2 -67 -3 55 c-7 95 -43 92 -43 -2 0 -27 -4
-48 -10 -48 -6 0 -10 27 -10 60 0 89 -29 79 -41 -15 -6 -46 -6 -44 -7 25 -1
48 2 70 7 61 8 -13 12 -13 26 -1z m522 2 c15 -9 34 -58 26 -66 -4 -3 -26 -6
-50 -6 -23 0 -43 -4 -43 -9 0 -19 31 -33 60 -27 31 6 42 -7 14 -18 -56 -21
-104 9 -104 66 0 49 58 85 97 60z m160 -4 c19 -16 18 -128 -2 -128 -11 0 -15
13 -15 54 0 30 -5 58 -10 61 -22 13 -40 -17 -40 -66 0 -37 -4 -49 -15 -49 -12
0 -15 14 -15 68 l0 68 42 1 c23 1 48 -3 55 -9z m163 2 c0 -5 -16 -10 -35 -10
-40 0 -49 -24 -12 -36 24 -7 57 -33 57 -45 0 -4 -7 -15 -16 -23 -19 -19 -94
-22 -94 -3 0 7 14 12 37 12 50 0 52 19 3 38 -41 16 -52 41 -28 65 14 14 88 16
88 2z m151 -11 c17 -17 20 -29 15 -58 -3 -20 -13 -42 -23 -48 -23 -18 -68 -16
-87 3 -21 20 -20 83 1 106 22 24 68 23 94 -3z m79 9 c0 -9 3 -9 12 0 15 15 51
15 66 0 17 -17 15 -38 -3 -38 -8 0 -15 7 -15 15 0 20 -19 19 -42 -2 -12 -11
-18 -30 -18 -60 0 -32 -4 -43 -15 -43 -12 0 -15 14 -15 70 0 56 3 70 15 70 8
0 15 -5 15 -12z m533 0 c9 -7 19 -27 23 -43 8 -40 -26 -85 -64 -85 -33 0 -45
8 -61 38 -33 62 46 131 102 90z m67 -28 c0 -45 14 -54 24 -15 9 34 23 31 40
-7 14 -31 14 -32 15 -8 2 40 12 70 25 70 9 0 10 -17 3 -70 -8 -56 -13 -70 -27
-70 -11 0 -21 12 -27 33 l-10 32 -13 -32 c-13 -36 -36 -44 -44 -15 -2 9 -8 41
-11 70 -6 44 -4 52 9 52 12 0 16 -10 16 -40z m554 18 c30 -43 21 -58 -34 -58
-27 0 -50 -4 -50 -9 0 -19 31 -33 61 -27 22 4 29 2 27 -7 -3 -6 -21 -13 -41
-15 -61 -5 -94 46 -66 101 16 29 28 37 61 37 17 0 33 -9 42 -22z m76 10 c0 -9
3 -9 12 0 15 15 51 15 66 0 17 -17 15 -38 -3 -38 -8 0 -15 7 -15 15 0 20 -19
19 -42 -2 -12 -11 -18 -30 -18 -60 0 -32 -4 -43 -15 -43 -12 0 -15 14 -15 70
0 56 3 70 15 70 8 0 15 -5 15 -12z m230 -7 c5 -11 10 -42 10 -69 l0 -49 -47
-1 c-48 -1 -73 10 -73 34 0 22 30 44 61 44 24 0 30 4 27 18 -3 13 -13 17 -41
16 -35 -1 -45 5 -30 19 3 4 23 7 44 7 28 0 41 -5 49 -19z m150 6 c0 -7 -12
-12 -27 -12 -41 0 -41 -18 1 -38 37 -18 46 -43 24 -65 -17 -17 -98 -16 -98 2
0 11 10 13 41 9 36 -5 41 -4 37 13 -2 10 -14 21 -27 24 -13 3 -30 15 -38 27
-12 18 -12 23 2 37 20 19 85 22 85 3z m328 -59 c2 -43 -1 -68 -8 -68 -6 0 -10
23 -10 54 0 55 -12 80 -24 50 -3 -9 -6 -36 -6 -60 0 -32 -4 -44 -15 -44 -12 0
-15 13 -15 61 0 37 -4 58 -10 54 -5 -3 -10 -31 -10 -61 0 -41 -4 -54 -15 -54
-12 0 -15 14 -15 69 l0 69 63 -2 62 -1 3 -67z m134 55 c23 -20 24 -80 1 -105
-23 -26 -78 -24 -97 4 -49 70 34 157 96 101z m312 -5 c30 -43 21 -58 -34 -58
-49 0 -50 -1 -39 -21 9 -17 17 -20 46 -16 24 4 33 2 30 -6 -5 -18 -69 -20 -91
-4 -26 19 -27 79 -1 107 24 27 70 26 89 -2z m306 9 c0 -7 -13 -12 -32 -12 -45
0 -45 -19 2 -38 41 -16 52 -41 28 -65 -17 -17 -98 -16 -98 2 0 9 12 13 36 12
42 -1 57 19 22 29 -25 8 -58 34 -58 46 0 4 7 15 16 23 19 19 84 22 84 3z m270
-47 c0 -53 2 -60 20 -60 11 0 20 -4 20 -10 0 -5 -22 -10 -50 -10 -27 0 -50 5
-50 10 0 6 11 10 25 10 23 0 25 3 25 50 0 43 -3 50 -20 50 -11 0 -20 5 -20 10
0 6 11 10 25 10 24 0 25 -3 25 -60z m117 51 c9 8 17 8 26 0 10 -8 17 -7 25 1
8 8 15 8 27 -2 17 -14 22 -130 5 -130 -6 0 -10 27 -10 60 0 89 -29 79 -41 -15
l-6 -50 -2 63 c-1 46 -5 62 -15 62 -18 0 -26 -22 -26 -76 0 -24 -4 -44 -10
-44 -6 0 -10 31 -10 72 0 55 3 69 12 60 8 -8 15 -9 25 -1z m178 1 c25 11 29
10 46 -11 40 -49 10 -121 -50 -121 -25 0 -30 -5 -34 -27 -2 -16 -5 17 -5 72
-1 56 2 94 7 87 6 -11 13 -11 36 0z m192 0 c21 -13 33 -60 23 -86 -9 -26 -38
-46 -64 -46 -47 0 -65 95 -24 124 24 17 46 20 65 8z m93 -2 c0 -7 7 -7 20 0
25 13 56 5 64 -17 9 -23 -4 -31 -15 -10 -12 20 -40 22 -57 5 -7 -7 -12 -34
-12 -60 0 -26 -4 -48 -10 -48 -6 0 -10 30 -10 70 0 40 4 70 10 70 6 0 10 -5
10 -10z m694 -12 c30 -43 21 -58 -34 -58 -27 0 -50 -4 -50 -9 0 -19 31 -33 61
-27 22 4 29 2 27 -7 -3 -6 -21 -13 -41 -15 -61 -5 -94 46 -66 101 16 29 28 37
61 37 17 0 33 -9 42 -22z m156 -73 c0 -81 -2 -95 -16 -95 -12 0 -15 7 -12 28
4 27 2 29 -31 28 -27 -1 -38 4 -49 25 -30 52 6 109 69 109 l39 0 0 -95z m70
40 c0 -40 4 -57 15 -61 27 -11 45 16 45 67 0 37 4 49 15 49 12 0 15 -14 15
-69 l0 -68 -50 -2 c-46 -1 -52 2 -60 25 -16 41 -13 114 5 114 12 0 15 -13 15
-55z m234 33 c30 -43 21 -58 -34 -58 -27 0 -50 -4 -50 -9 0 -19 31 -33 61 -27
22 4 29 2 27 -7 -3 -6 -21 -13 -41 -15 -61 -5 -94 46 -66 101 16 29 28 37 61
37 17 0 33 -9 42 -22z m156 2 c5 -10 10 -41 10 -69 0 -39 -4 -51 -15 -51 -12
0 -15 13 -15 55 0 40 -4 57 -15 61 -27 11 -45 -16 -45 -67 0 -37 -4 -49 -15
-49 -12 0 -15 14 -15 68 l0 69 50 1 c39 1 52 -3 60 -18z m280 -40 c0 -53 2
-60 20 -60 11 0 20 -4 20 -10 0 -6 -27 -10 -60 -10 -33 0 -60 4 -60 10 0 6 11
10 25 10 23 0 25 3 25 50 0 43 -3 50 -20 50 -11 0 -20 5 -20 10 0 6 16 10 35
10 l35 0 0 -60z m180 41 c5 -11 10 -42 10 -69 l0 -49 -47 -1 c-48 -1 -73 10
-73 34 0 22 30 44 61 44 24 0 30 4 27 18 -3 13 -13 17 -41 16 -35 -1 -45 5
-30 19 3 4 23 7 44 7 28 0 41 -5 49 -19z m763 7 c9 -7 19 -27 23 -43 8 -40
-26 -85 -64 -85 -33 0 -45 8 -61 38 -33 62 46 131 102 90z m311 -4 c9 -8 16
-26 16 -40 0 -22 -4 -24 -45 -24 -33 0 -45 -4 -45 -15 0 -16 42 -30 65 -22 8
4 17 2 20 -2 6 -11 -19 -21 -53 -21 -55 0 -82 67 -46 118 18 26 65 30 88 6z
m-5569 -100 c0 -10 -8 -20 -18 -22 -22 -4 -35 27 -16 39 20 12 34 5 34 -17z
m923 -2 c3 -16 -2 -22 -16 -22 -24 0 -35 23 -19 39 16 16 31 8 35 -17z m3852
-9 c0 -31 -26 -63 -52 -63 -25 0 -23 16 3 23 18 5 20 11 14 36 -6 27 -4 31 14
31 16 0 21 -6 21 -27z m-7040 -212 c0 -5 -12 -11 -27 -13 -20 -2 -29 -9 -31
-25 -3 -20 1 -23 27 -23 17 0 31 -4 31 -10 0 -5 -13 -10 -30 -10 -29 0 -30 -1
-30 -50 0 -27 -4 -50 -10 -50 -5 0 -10 23 -10 50 0 43 -3 50 -20 50 -11 0 -20
5 -20 10 0 6 9 10 20 10 15 0 20 7 20 25 0 13 8 29 18 34 22 13 62 14 62 2z
m1700 0 c0 -5 -12 -11 -27 -13 -20 -2 -29 -9 -31 -25 -3 -20 1 -23 27 -23 17
0 31 -4 31 -10 0 -5 -13 -10 -30 -10 -29 0 -30 -1 -30 -50 0 -38 -4 -50 -15
-50 -11 0 -15 12 -15 50 0 47 -2 50 -25 50 -14 0 -25 5 -25 10 0 6 11 10 25
10 19 0 25 5 25 23 0 13 5 28 12 35 14 14 78 16 78 3z m100 -76 c0 -78 2 -85
20 -85 11 0 20 -4 20 -10 0 -5 -25 -10 -55 -10 -30 0 -55 5 -55 10 0 6 9 10
20 10 18 0 20 7 20 75 0 59 -3 75 -14 75 -8 0 -18 5 -21 10 -4 6 8 10 29 10
l36 0 0 -85z m570 28 l0 -57 33 32 c41 40 72 44 34 4 -15 -15 -27 -32 -27 -37
0 -5 14 -24 32 -42 27 -28 29 -33 13 -33 -11 0 -34 14 -52 32 l-33 32 0 -32
c0 -18 -4 -32 -10 -32 -6 0 -10 38 -10 95 0 57 4 95 10 95 6 0 10 -26 10 -57z
m970 -28 c0 -78 2 -85 20 -85 11 0 20 -4 20 -10 0 -5 -25 -10 -55 -10 -30 0
-55 5 -55 10 0 6 9 10 20 10 18 0 20 7 20 75 0 59 -3 75 -14 75 -8 0 -18 5
-21 10 -4 6 8 10 29 10 l36 0 0 -85z m1078 73 c-6 -18 -28 -21 -28 -4 0 9 7
16 16 16 9 0 14 -5 12 -12z m2312 -73 c0 -78 2 -85 20 -85 11 0 20 -4 20 -10
0 -5 -25 -10 -55 -10 -30 0 -55 5 -55 10 0 6 9 10 20 10 18 0 20 7 20 75 0 68
-2 75 -20 75 -11 0 -20 5 -20 10 0 6 16 10 35 10 l35 0 0 -85z m4730 57 c0
-25 3 -28 28 -25 38 5 53 -8 59 -54 7 -55 -21 -86 -75 -81 l-37 3 -3 93 c-2
77 0 92 13 92 10 0 15 -10 15 -28z m230 -67 c0 -57 -4 -95 -10 -95 -5 0 -10 5
-10 11 0 8 -4 8 -14 -1 -22 -18 -59 -8 -75 21 -26 46 6 109 55 109 19 0 24 5
24 25 0 16 6 25 15 25 12 0 15 -17 15 -95z m-12249 75 c21 -12 25 -50 7 -68
-9 -9 -7 -13 5 -18 21 -8 22 -47 3 -63 -20 -17 -86 -26 -86 -12 0 6 15 11 33
11 41 0 60 12 55 36 -2 12 -14 21 -33 24 l-29 5 28 13 c41 18 33 56 -13 60
-25 3 -31 6 -20 13 18 11 26 11 50 -1z m1259 -10 c0 -16 7 -20 35 -20 19 0 35
-4 35 -10 0 -5 -16 -10 -35 -10 -33 0 -35 -2 -35 -34 0 -52 9 -66 41 -66 16 0
29 -4 29 -10 0 -12 -60 -13 -79 -1 -7 5 -16 32 -19 60 -3 34 -9 51 -18 51 -8
0 -14 5 -14 10 0 6 6 10 14 10 7 0 16 9 19 20 3 11 10 20 16 20 6 0 11 -9 11
-20z m4491 -20 c16 0 29 -4 29 -10 0 -5 -14 -10 -31 -10 -30 0 -30 -1 -27 -47
3 -44 5 -48 31 -51 33 -4 36 -22 4 -22 -35 0 -47 19 -47 72 0 41 -3 48 -20 48
-11 0 -20 5 -20 10 0 6 9 10 20 10 14 0 20 7 21 23 l2 22 4 -22 c3 -18 11 -23
34 -23z m336 14 c22 -22 25 -32 20 -72 -6 -57 -33 -82 -88 -82 l-39 0 0 90 0
90 40 0 c31 0 47 -7 67 -26z m1083 16 c0 -5 -16 -10 -35 -10 -32 0 -35 -2 -35
-30 0 -28 3 -30 35 -30 19 0 35 -4 35 -10 0 -5 -16 -10 -35 -10 -34 0 -35 -1
-35 -40 0 -29 -4 -40 -15 -40 -12 0 -15 17 -15 90 l0 90 50 0 c28 0 50 -4 50
-10z m410 -10 c0 -16 7 -20 30 -20 17 0 30 -4 30 -10 0 -5 -14 -10 -31 -10
-30 0 -30 -1 -27 -47 3 -44 5 -48 31 -51 38 -5 34 -22 -6 -22 -45 0 -57 15
-57 72 0 41 -3 48 -20 48 -11 0 -20 5 -20 10 0 6 9 10 20 10 13 0 20 7 20 20
0 11 7 20 15 20 8 0 15 -9 15 -20z m150 0 c0 -16 7 -20 30 -20 17 0 30 -4 30
-10 0 -5 -14 -10 -31 -10 -30 0 -30 -1 -27 -47 3 -44 5 -48 31 -51 38 -5 34
-22 -6 -22 -45 0 -57 15 -57 72 0 41 -3 48 -20 48 -11 0 -20 5 -20 10 0 6 9
10 20 10 13 0 20 7 20 20 0 11 7 20 15 20 8 0 15 -9 15 -20z m830 10 c0 -5 -9
-10 -20 -10 -18 0 -20 -7 -20 -70 0 -63 2 -70 20 -70 11 0 20 -4 20 -10 0 -5
-25 -10 -55 -10 -30 0 -55 5 -55 10 0 6 9 10 20 10 18 0 20 7 20 70 0 63 -2
70 -20 70 -11 0 -20 5 -20 10 0 6 25 10 55 10 30 0 55 -4 55 -10z m560 -10 c0
-16 7 -20 30 -20 17 0 30 -4 30 -10 0 -5 -14 -10 -31 -10 -30 0 -30 -1 -27
-47 3 -44 5 -48 31 -51 38 -5 34 -22 -6 -22 -45 0 -57 15 -57 72 0 41 -3 48
-20 48 -11 0 -20 5 -20 10 0 6 9 10 20 10 13 0 20 7 20 20 0 11 7 20 15 20 8
0 15 -9 15 -20z m1230 0 c0 -16 7 -20 30 -20 17 0 30 -4 30 -10 0 -5 -14 -10
-31 -10 -30 0 -30 -1 -27 -47 3 -44 5 -48 31 -51 38 -5 34 -22 -6 -22 -45 0
-57 15 -57 72 0 41 -3 48 -20 48 -11 0 -20 5 -20 10 0 6 9 10 20 10 13 0 20 7
20 20 0 11 7 20 15 20 8 0 15 -9 15 -20z m610 0 c0 -16 7 -20 30 -20 17 0 30
-4 30 -10 0 -5 -14 -10 -31 -10 -30 0 -30 -1 -27 -47 3 -44 5 -48 31 -51 36
-4 35 -22 -2 -22 -42 0 -61 24 -61 76 0 37 -3 44 -20 44 -11 0 -20 5 -20 10 0
6 8 10 19 10 10 0 21 9 24 20 3 11 10 20 16 20 6 0 11 -9 11 -20z m600 -60 l0
-80 40 0 c22 0 40 -4 40 -10 0 -5 -25 -10 -55 -10 l-55 0 0 90 c0 73 3 90 15
90 12 0 15 -16 15 -80z m-10907 31 c30 14 57 -1 57 -30 -1 -13 -3 -13 -15 3
-12 16 -20 18 -43 10 -24 -8 -28 -16 -33 -64 -6 -54 -6 -54 -7 20 -1 43 2 69
7 62 6 -10 13 -11 34 -1z m184 1 c21 -13 33 -60 23 -86 -9 -26 -38 -46 -64
-46 -47 0 -65 95 -24 124 24 17 46 20 65 8z m98 -2 c14 12 18 12 25 0 7 -11
11 -11 24 -1 26 22 36 3 34 -67 l-2 -67 -3 55 c-7 95 -43 92 -43 -2 0 -27 -4
-48 -10 -48 -6 0 -10 27 -10 60 0 89 -29 79 -41 -15 -6 -46 -6 -44 -7 25 -1
48 2 70 7 61 8 -13 12 -13 26 -1z m522 2 c15 -9 34 -58 26 -66 -4 -3 -26 -6
-50 -6 -23 0 -43 -4 -43 -9 0 -19 31 -33 60 -27 31 6 42 -7 14 -18 -56 -21
-104 9 -104 66 0 49 58 85 97 60z m160 -4 c19 -16 18 -128 -2 -128 -11 0 -15
13 -15 54 0 30 -5 58 -10 61 -22 13 -40 -17 -40 -66 0 -37 -4 -49 -15 -49 -12
0 -15 14 -15 68 l0 68 42 1 c23 1 48 -3 55 -9z m163 2 c0 -5 -16 -10 -35 -10
-40 0 -49 -24 -12 -36 24 -7 57 -33 57 -45 0 -4 -7 -15 -16 -23 -19 -19 -94
-22 -94 -3 0 7 14 12 37 12 50 0 52 19 3 38 -41 16 -52 41 -28 65 14 14 88 16
88 2z m151 -11 c17 -17 20 -29 15 -58 -3 -20 -13 -42 -23 -48 -23 -18 -68 -16
-87 3 -21 20 -20 83 1 106 22 24 68 23 94 -3z m79 9 c0 -9 3 -9 12 0 15 15 51
15 66 0 17 -17 15 -38 -3 -38 -8 0 -15 7 -15 15 0 20 -19 19 -42 -2 -12 -11
-18 -30 -18 -60 0 -32 -4 -43 -15 -43 -12 0 -15 14 -15 70 0 56 3 70 15 70 8
0 15 -5 15 -12z m533 0 c9 -7 19 -27 23 -43 8 -40 -26 -85 -64 -85 -33 0 -45
8 -61 38 -33 62 46 131 102 90z m67 -28 c0 -45 14 -54 24 -15 9 34 23 31 40
-7 14 -31 14 -32 15 -8 2 40 12 70 25 70 9 0 10 -17 3 -70 -8 -56 -13 -70 -27
-70 -11 0 -21 12 -27 33 l-10 32 -13 -32 c-13 -36 -36 -44 -44 -15 -2 9 -8 41
-11 70 -6 44 -4 52 9 52 12 0 16 -10 16 -40z m554 18 c30 -43 21 -58 -34 -58
-27 0 -50 -4 -50 -9 0 -19 31 -33 61 -27 22 4 29 2 27 -7 -3 -6 -21 -13 -41
-15 -61 -5 -94 46 -66 101 16 29 28 37 61 37 17 0 33 -9 42 -22z m76 10 c0 -9
3 -9 12 0 15 15 51 15 66 0 17 -17 15 -38 -3 -38 -8 0 -15 7 -15 15 0 20 -19
19 -42 -2 -12 -11 -18 -30 -18 -60 0 -32 -4 -43 -15 -43 -12 0 -15 14 -15 70
0 56 3 70 15 70 8 0 15 -5 15 -12z m230 -7 c5 -11 10 -42 10 -69 l0 -49 -47
-1 c-48 -1 -73 10 -73 34 0 22 30 44 61 44 24 0 30 4 27 18 -3 13 -13 17 -41
16 -35 -1 -45 5 -30 19 3 4 23 7 44 7 28 0 41 -5 49 -19z m150 6 c0 -7 -12
-12 -27 -12 -41 0 -41 -18 1 -38 37 -18 46 -43 24 -65 -17 -17 -98 -16 -98 2
0 11 10 13 41 9 36 -5 41 -4 37 13 -2 10 -14 21 -27 24 -13 3 -30 15 -38 27
-12 18 -12 23 2 37 20 19 85 22 85 3z m458 1 c7 -7 12 -37 12 -68 l0 -57 -52
1 c-48 1 -53 3 -56 25 -4 29 20 51 56 51 17 0 22 5 20 18 -3 12 -13 17 -36 16
-31 -2 -40 5 -25 19 11 12 68 8 81 -5z m86 -20 c7 -18 16 -42 21 -53 6 -17 10
-11 27 33 12 28 27 52 34 52 16 0 -24 -118 -55 -160 -18 -25 -71 -41 -71 -21
0 6 6 11 14 11 8 0 21 7 30 15 13 14 12 23 -14 85 -23 56 -26 70 -14 70 8 0
21 -15 28 -32z m230 10 c30 -43 21 -58 -34 -58 -49 0 -50 -1 -39 -21 9 -17 17
-20 46 -16 24 4 33 2 30 -6 -5 -18 -69 -20 -91 -4 -26 19 -27 79 -1 107 24 27
70 26 89 -2z m166 2 c13 -24 13 -30 -1 -30 -7 0 -18 8 -25 18 -23 31 -49 3
-52 -57 -2 -36 -7 -51 -18 -51 -11 0 -14 15 -14 68 l0 69 50 1 c39 1 52 -3 60
-18z m140 7 c0 -7 -13 -12 -32 -12 -45 0 -45 -19 2 -38 41 -16 52 -41 28 -65
-17 -17 -98 -16 -98 2 0 9 12 13 36 12 42 -1 57 19 22 29 -25 8 -58 34 -58 46
0 4 7 15 16 23 19 19 84 22 84 3z m270 -47 c0 -53 2 -60 20 -60 11 0 20 -4 20
-10 0 -5 -22 -10 -50 -10 -27 0 -50 5 -50 10 0 6 11 10 25 10 23 0 25 3 25 50
0 43 -3 50 -20 50 -11 0 -20 5 -20 10 0 6 11 10 25 10 24 0 25 -3 25 -60z
m117 51 c9 8 17 8 26 0 10 -8 17 -7 25 1 8 8 15 8 27 -2 17 -14 22 -130 5
-130 -6 0 -10 27 -10 60 0 89 -29 79 -41 -15 l-6 -50 -2 63 c-1 46 -5 62 -15
62 -18 0 -26 -22 -26 -76 0 -24 -4 -44 -10 -44 -6 0 -10 31 -10 72 0 55 3 69
12 60 8 -8 15 -9 25 -1z m178 1 c25 11 29 10 46 -11 40 -49 10 -121 -50 -121
-25 0 -30 -5 -34 -27 -2 -16 -5 17 -5 72 -1 56 2 94 7 87 6 -11 13 -11 36 0z
m192 0 c21 -13 33 -60 23 -86 -9 -26 -38 -46 -64 -46 -47 0 -65 95 -24 124 24
17 46 20 65 8z m93 -2 c0 -7 7 -7 20 0 25 13 56 5 64 -17 9 -23 -4 -31 -15
-10 -12 20 -40 22 -57 5 -7 -7 -12 -34 -12 -60 0 -26 -4 -48 -10 -48 -6 0 -10
30 -10 70 0 40 4 70 10 70 6 0 10 -5 10 -10z m694 -12 c30 -43 21 -58 -34 -58
-27 0 -50 -4 -50 -9 0 -19 31 -33 61 -27 22 4 29 2 27 -7 -3 -6 -21 -13 -41
-15 -61 -5 -94 46 -66 101 16 29 28 37 61 37 17 0 33 -9 42 -22z m139 16 c14
-4 17 -17 17 -70 0 -36 -4 -64 -10 -64 -5 0 -10 21 -10 48 0 59 -13 81 -37 66
-13 -8 -19 -26 -21 -63 -2 -36 -7 -51 -18 -51 -11 0 -14 15 -14 69 l0 69 38 0
c20 1 45 -1 55 -4z m167 -3 c0 -6 -14 -11 -32 -13 -44 -4 -46 -24 -4 -38 20
-6 36 -13 36 -15 0 -2 3 -10 6 -18 3 -8 -2 -22 -11 -31 -20 -19 -95 -22 -95
-3 0 7 14 12 37 12 50 0 52 19 3 38 -41 16 -52 41 -28 65 14 14 88 16 88 3z
m154 -13 c30 -43 21 -58 -34 -58 -27 0 -50 -4 -50 -9 0 -19 31 -33 61 -27 22
4 29 2 27 -7 -3 -6 -21 -13 -41 -15 -61 -5 -94 46 -66 101 16 29 28 37 61 37
17 0 33 -9 42 -22z m764 10 c7 -7 12 -37 12 -68 l0 -56 -50 -2 c-40 -2 -51 2
-60 18 -14 25 18 60 56 60 19 0 25 4 22 18 -3 12 -13 17 -36 16 -31 -2 -40 5
-25 19 11 12 68 8 81 -5z m466 -10 c30 -43 21 -58 -34 -58 -49 0 -50 -1 -39
-21 9 -17 17 -20 46 -16 24 4 33 2 30 -6 -5 -18 -69 -20 -91 -4 -26 19 -27 79
-1 107 24 27 70 26 89 -2z m156 2 c5 -10 10 -41 10 -69 0 -39 -4 -51 -15 -51
-12 0 -15 13 -15 55 0 40 -4 57 -15 61 -27 11 -45 -16 -45 -67 0 -37 -4 -49
-15 -49 -12 0 -15 14 -15 68 l0 69 50 1 c39 1 52 -3 60 -18z m603 14 c14 -4
17 -17 17 -70 0 -36 -4 -64 -10 -64 -5 0 -10 21 -10 48 0 59 -13 81 -37 66
-13 -8 -19 -26 -21 -63 -2 -36 -7 -51 -18 -51 -11 0 -14 15 -14 69 l0 69 38 0
c20 1 45 -1 55 -4z m165 -6 c18 -15 15 -88 -5 -110 -9 -10 -29 -18 -45 -18
-23 0 -28 -4 -28 -25 0 -16 -6 -25 -15 -25 -12 0 -15 17 -15 93 l0 94 48 1
c26 0 53 -4 60 -10z m82 -42 c0 -30 5 -58 10 -61 22 -13 40 17 40 66 0 37 4
49 15 49 12 0 15 -14 15 -68 l0 -68 -42 -1 c-58 -3 -68 9 -68 78 0 46 3 59 15
59 11 0 15 -13 15 -54z m690 40 c0 -8 -8 -12 -23 -9 -27 5 -57 -19 -57 -47 0
-28 30 -52 57 -47 15 3 23 -1 23 -9 0 -18 -60 -19 -83 -1 -51 37 -17 127 49
127 22 0 34 -5 34 -14z m152 -3 c24 -22 24 -77 -2 -103 -44 -44 -110 -13 -110
52 0 57 70 89 112 51z m141 11 c14 -4 17 -17 17 -70 0 -36 -4 -64 -10 -64 -5
0 -10 21 -10 48 0 59 -13 81 -37 66 -13 -8 -19 -26 -21 -63 -2 -36 -7 -51 -18
-51 -11 0 -14 15 -14 69 l0 69 38 0 c20 1 45 -1 55 -4z m169 -9 c-2 -5 -14 -9
-27 -7 -29 4 -60 -37 -50 -67 6 -20 40 -36 62 -29 6 2 13 -1 15 -7 4 -12 -36
-19 -67 -11 -26 7 -48 56 -38 84 13 37 36 53 72 50 20 -2 35 -7 33 -13z m146
3 c7 -7 12 -37 12 -68 l0 -57 -52 1 c-48 1 -53 3 -56 25 -4 29 20 51 56 51 17
0 22 5 20 18 -3 12 -13 17 -36 16 -31 -2 -40 5 -25 19 11 12 68 8 81 -5z m316
-10 c30 -43 21 -58 -34 -58 -27 0 -50 -4 -50 -9 0 -19 31 -33 61 -27 22 4 29
2 27 -7 -3 -6 -21 -13 -41 -15 -61 -5 -94 46 -66 101 16 29 28 37 61 37 17 0
33 -9 42 -22z m139 16 c14 -4 17 -17 17 -70 0 -36 -4 -64 -10 -64 -5 0 -10 21
-10 48 0 59 -13 81 -37 66 -13 -8 -19 -26 -21 -63 -2 -36 -7 -51 -18 -51 -11
0 -14 15 -14 69 l0 69 38 0 c20 1 45 -1 55 -4z m167 -13 c5 -11 10 -42 10 -69
l0 -49 -47 -1 c-48 -1 -73 10 -73 34 0 22 30 44 61 44 24 0 30 4 27 18 -3 13
-13 17 -41 16 -35 -1 -45 5 -30 19 3 4 23 7 44 7 28 0 41 -5 49 -19z m304 3
c9 -8 16 -26 16 -40 0 -22 -4 -24 -45 -24 -33 0 -45 -4 -45 -15 0 -16 42 -30
65 -22 8 4 17 2 20 -2 6 -11 -19 -21 -53 -21 -55 0 -82 67 -46 118 18 26 65
30 88 6z m614 4 c7 -7 12 -37 12 -68 l0 -56 -50 -2 c-40 -2 -51 2 -60 18 -14
25 18 60 56 60 19 0 25 4 22 18 -3 12 -13 17 -36 16 -31 -2 -40 5 -25 19 11
12 68 8 81 -5z m174 -2 c4 -6 8 -37 8 -68 0 -45 -3 -58 -15 -58 -12 0 -15 14
-15 63 -1 57 -2 60 -15 43 -8 -11 -15 -39 -15 -63 0 -24 -4 -43 -10 -43 -6 0
-10 27 -10 60 0 33 -4 60 -9 60 -14 0 -21 -27 -21 -76 0 -32 -4 -44 -15 -44
-12 0 -15 14 -15 69 l0 68 63 0 c34 0 65 -5 69 -11z m448 -5 c5 -11 10 -42 10
-69 l0 -49 -47 -1 c-48 -1 -73 10 -73 34 0 22 30 44 61 44 24 0 30 4 27 18 -3
13 -13 17 -41 16 -35 -1 -45 5 -30 19 3 4 23 7 44 7 28 0 41 -5 49 -19z
m-9575 -97 c0 -10 -8 -20 -18 -22 -22 -4 -35 27 -16 39 20 12 34 5 34 -17z
m923 -2 c3 -16 -2 -22 -16 -22 -24 0 -35 23 -19 39 16 16 31 8 35 -17z m3082
-9 c0 -31 -26 -63 -52 -63 -25 0 -23 16 3 23 18 5 20 11 14 36 -6 27 -4 31 14
31 16 0 21 -6 21 -27z m1385 16 c12 -19 -5 -60 -30 -71 -31 -14 -45 -3 -20 16
12 8 16 19 12 30 -4 10 -5 22 -1 27 7 12 31 11 39 -2z m1079 -4 c13 -36 -20
-75 -62 -75 -14 0 -12 4 6 18 18 14 22 24 17 45 -6 23 -4 27 13 27 11 0 22 -7
26 -15z m2001 4 c12 -19 -5 -60 -30 -71 -31 -14 -45 -3 -20 16 12 8 16 19 12
30 -4 10 -5 22 -1 27 7 12 31 11 39 -2z m-6930 -230 c0 -7 -8 -15 -17 -17 -18
-3 -25 18 -11 32 10 10 28 1 28 -15z m306 -12 c-5 -5 -17 -7 -26 -3 -14 5 -15
9 -5 21 10 12 16 13 27 4 9 -8 10 -16 4 -22z m-4111 14 c0 -5 -12 -11 -27 -13
-20 -2 -29 -9 -31 -25 -3 -20 1 -23 27 -23 17 0 31 -4 31 -10 0 -5 -13 -10
-30 -10 -29 0 -30 -1 -30 -50 0 -27 -4 -50 -10 -50 -5 0 -10 23 -10 50 0 43
-3 50 -20 50 -11 0 -20 5 -20 10 0 6 9 10 20 10 15 0 20 7 20 25 0 13 8 29 18
34 22 13 62 14 62 2z m1700 0 c0 -5 -12 -11 -27 -13 -20 -2 -29 -9 -31 -25 -3
-20 1 -23 27 -23 17 0 31 -4 31 -10 0 -5 -13 -10 -30 -10 -29 0 -30 -1 -30
-50 0 -38 -4 -50 -15 -50 -11 0 -15 12 -15 50 0 47 -2 50 -25 50 -14 0 -25 5
-25 10 0 6 11 10 25 10 19 0 25 5 25 23 0 13 5 28 12 35 14 14 78 16 78 3z
m100 -76 c0 -78 2 -85 20 -85 11 0 20 -4 20 -10 0 -5 -25 -10 -55 -10 -30 0
-55 5 -55 10 0 6 9 10 20 10 18 0 20 7 20 75 0 59 -3 75 -14 75 -8 0 -18 5
-21 10 -4 6 8 10 29 10 l36 0 0 -85z m570 28 l0 -57 33 32 c41 40 72 44 34 4
-15 -15 -27 -32 -27 -37 0 -5 14 -24 32 -42 27 -28 29 -33 13 -33 -11 0 -34
14 -52 32 l-33 32 0 -32 c0 -18 -4 -32 -10 -32 -6 0 -10 38 -10 95 0 57 4 95
10 95 6 0 10 -26 10 -57z m2658 46 c-2 -6 -8 -10 -13 -10 -5 0 -11 4 -13 10
-2 6 4 11 13 11 9 0 15 -5 13 -11z m1282 -84 c0 -78 -3 -95 -15 -95 -8 0 -15
5 -15 12 0 9 -3 9 -12 0 -7 -7 -21 -12 -33 -12 -31 0 -45 19 -45 64 0 48 23
76 62 76 23 0 28 4 28 25 0 16 6 25 15 25 12 0 15 -17 15 -95z m-6850 25 c0
-47 3 -60 15 -60 8 0 15 -4 15 -10 0 -5 -7 -10 -15 -10 -8 0 -15 -9 -15 -20 0
-11 -4 -20 -10 -20 -5 0 -10 9 -10 20 0 17 -7 20 -40 20 -23 0 -40 5 -40 11 0
22 72 129 86 129 11 0 14 -15 14 -60z m1240 40 c0 -16 7 -20 35 -20 19 0 35
-4 35 -10 0 -5 -16 -10 -35 -10 -33 0 -35 -2 -35 -34 0 -52 9 -66 41 -66 16 0
29 -4 29 -10 0 -12 -60 -13 -79 -1 -7 5 -16 32 -19 60 -3 34 -9 51 -18 51 -8
0 -14 5 -14 10 0 6 6 10 14 10 7 0 16 9 19 20 3 11 10 20 16 20 6 0 11 -9 11
-20z m2930 0 c0 -16 7 -20 30 -20 17 0 30 -4 30 -10 0 -5 -14 -10 -31 -10 -30
0 -30 -1 -27 -47 3 -44 5 -48 31 -51 38 -5 34 -22 -6 -22 -45 0 -57 15 -57 72
0 41 -3 48 -20 48 -11 0 -20 5 -20 10 0 6 9 10 20 10 13 0 20 7 20 20 0 11 7
20 15 20 8 0 15 -9 15 -20z m2510 -57 c13 -43 25 -84 27 -90 3 -7 -2 -13 -10
-13 -9 0 -19 9 -22 20 -5 15 -15 20 -42 20 -26 0 -36 -5 -40 -20 -3 -11 -12
-20 -19 -20 -8 0 -14 1 -14 3 0 3 44 136 55 165 2 6 13 12 23 12 15 0 24 -16
42 -77z m-360 52 c0 -10 10 -15 30 -15 17 0 30 -4 30 -10 0 -5 -14 -10 -31
-10 -30 0 -30 -1 -27 -47 3 -44 5 -48 31 -51 33 -4 36 -22 3 -22 -37 0 -56 25
-56 76 0 37 -3 44 -20 44 -11 0 -20 5 -20 10 0 6 9 10 20 10 11 0 20 7 20 15
0 8 5 15 10 15 6 0 10 -7 10 -15z m-5687 -24 c30 14 57 -1 57 -30 -1 -13 -3
-13 -15 3 -12 16 -20 18 -43 10 -24 -8 -28 -16 -33 -64 -6 -54 -6 -54 -7 20
-1 43 2 69 7 62 6 -10 13 -11 34 -1z m184 1 c21 -13 33 -60 23 -86 -9 -26 -38
-46 -64 -46 -47 0 -65 95 -24 124 24 17 46 20 65 8z m98 -2 c14 12 18 12 25 0
7 -11 11 -11 24 -1 26 22 36 3 34 -67 l-2 -67 -3 55 c-7 95 -43 92 -43 -2 0
-27 -4 -48 -10 -48 -6 0 -10 27 -10 60 0 89 -29 79 -41 -15 -6 -46 -6 -44 -7
25 -1 48 2 70 7 61 8 -13 12 -13 26 -1z m522 2 c15 -9 34 -58 26 -66 -4 -3
-26 -6 -50 -6 -23 0 -43 -4 -43 -9 0 -19 31 -33 60 -27 31 6 42 -7 14 -18 -56
-21 -104 9 -104 66 0 49 58 85 97 60z m160 -4 c19 -16 18 -128 -2 -128 -11 0
-15 13 -15 54 0 30 -5 58 -10 61 -22 13 -40 -17 -40 -66 0 -37 -4 -49 -15 -49
-12 0 -15 14 -15 68 l0 68 42 1 c23 1 48 -3 55 -9z m163 2 c0 -5 -16 -10 -35
-10 -40 0 -49 -24 -12 -36 24 -7 57 -33 57 -45 0 -4 -7 -15 -16 -23 -19 -19
-94 -22 -94 -3 0 7 14 12 37 12 50 0 52 19 3 38 -41 16 -52 41 -28 65 14 14
88 16 88 2z m151 -11 c17 -17 20 -29 15 -58 -3 -20 -13 -42 -23 -48 -23 -18
-68 -16 -87 3 -21 20 -20 83 1 106 22 24 68 23 94 -3z m79 9 c0 -9 3 -9 12 0
25 25 78 8 78 -25 0 -7 -7 -13 -15 -13 -8 0 -15 7 -15 15 0 20 -19 19 -42 -2
-12 -11 -18 -30 -18 -60 0 -32 -4 -43 -15 -43 -12 0 -15 14 -15 70 0 56 3 70
15 70 8 0 15 -5 15 -12z m533 0 c9 -7 19 -27 23 -43 8 -40 -26 -85 -64 -85
-33 0 -45 8 -61 38 -33 62 46 131 102 90z m67 -28 c0 -45 14 -54 24 -15 9 34
23 31 40 -7 14 -31 14 -32 15 -8 2 40 12 70 25 70 9 0 10 -17 3 -70 -8 -56
-13 -70 -27 -70 -11 0 -21 12 -27 33 l-10 32 -13 -32 c-13 -36 -36 -44 -44
-15 -2 9 -8 41 -11 70 -6 44 -4 52 9 52 12 0 16 -10 16 -40z m554 18 c30 -43
21 -58 -34 -58 -27 0 -50 -4 -50 -9 0 -19 31 -33 61 -27 22 4 29 2 27 -7 -3
-6 -21 -13 -41 -15 -61 -5 -94 46 -66 101 16 29 28 37 61 37 17 0 33 -9 42
-22z m76 10 c0 -9 3 -9 12 0 25 25 78 8 78 -25 0 -7 -7 -13 -15 -13 -8 0 -15
7 -15 15 0 20 -19 19 -42 -2 -12 -11 -18 -30 -18 -60 0 -32 -4 -43 -15 -43
-12 0 -15 14 -15 70 0 56 3 70 15 70 8 0 15 -5 15 -12z m230 -7 c5 -11 10 -42
10 -69 l0 -49 -47 -1 c-48 -1 -73 10 -73 34 0 22 30 44 61 44 24 0 30 4 27 18
-3 13 -13 17 -41 16 -35 -1 -45 5 -30 19 3 4 23 7 44 7 28 0 41 -5 49 -19z
m150 6 c0 -7 -12 -12 -27 -12 -41 0 -41 -18 1 -38 37 -18 46 -43 24 -65 -17
-17 -98 -16 -98 2 0 11 10 13 41 9 36 -5 41 -4 37 13 -2 10 -14 21 -27 24 -13
3 -30 15 -38 27 -12 18 -12 23 2 37 20 19 85 22 85 3z m312 -4 c24 -22 24 -77
-2 -103 -44 -44 -110 -13 -110 52 0 57 70 89 112 51z m158 -3 c28 -52 -3 -120
-55 -120 -20 0 -25 -5 -25 -25 0 -16 -6 -25 -15 -25 -12 0 -15 17 -15 94 l0
93 50 2 c39 0 52 -3 60 -19z m280 -40 c0 -53 2 -60 20 -60 11 0 20 -4 20 -10
0 -6 -27 -10 -60 -10 -33 0 -60 4 -60 10 0 6 11 10 25 10 23 0 25 3 25 50 0
43 -3 50 -20 50 -11 0 -20 5 -20 10 0 6 16 10 35 10 l35 0 0 -60z m192 46 c4
-6 8 -37 8 -68 0 -45 -3 -58 -15 -58 -12 0 -15 14 -15 63 -1 57 -2 60 -15 43
-8 -11 -15 -39 -15 -63 0 -24 -4 -43 -10 -43 -6 0 -10 27 -10 60 0 33 -4 60
-9 60 -14 0 -21 -27 -21 -76 0 -32 -4 -44 -15 -44 -12 0 -15 14 -15 69 l0 68
63 0 c34 0 65 -5 69 -11z m108 -46 c0 -53 2 -60 20 -60 11 0 20 -4 20 -10 0
-5 -25 -10 -55 -10 -30 0 -55 5 -55 10 0 6 9 10 20 10 17 0 20 7 20 50 0 43
-3 50 -20 50 -11 0 -20 5 -20 10 0 6 16 10 35 10 l35 0 0 -60z m190 49 c0 -5
-16 -31 -36 -57 l-36 -47 41 -3 c63 -5 48 -22 -19 -22 -33 0 -60 4 -60 9 0 4
16 29 35 54 19 25 35 48 35 51 0 3 -16 6 -35 6 -19 0 -35 5 -35 10 0 6 25 10
55 10 32 0 55 -4 55 -11z m137 3 c15 -9 34 -58 26 -66 -4 -3 -26 -6 -50 -6
-23 0 -43 -4 -43 -9 0 -19 31 -33 60 -27 31 6 42 -7 14 -18 -56 -21 -104 9
-104 66 0 49 58 85 97 60z m171 -4 c15 -13 16 -38 1 -38 -7 0 -17 7 -24 16 -9
14 -16 14 -33 5 -18 -10 -22 -21 -22 -61 0 -38 -4 -50 -15 -50 -12 0 -15 14
-15 68 l0 69 48 1 c26 0 53 -4 60 -10z m152 2 c0 -5 -16 -10 -35 -10 -40 0
-49 -24 -12 -36 24 -7 57 -33 57 -45 0 -4 -7 -15 -16 -23 -19 -19 -94 -22 -94
-3 0 7 14 12 37 12 50 0 52 19 3 38 -41 16 -52 41 -28 65 14 14 88 16 88 2z
m270 -50 c0 -53 2 -60 20 -60 11 0 20 -4 20 -10 0 -5 -22 -10 -50 -10 -27 0
-50 5 -50 10 0 6 9 10 20 10 17 0 20 7 20 50 0 43 -3 50 -20 50 -11 0 -20 5
-20 10 0 6 14 10 30 10 l30 0 0 -60z m115 50 c14 12 18 12 25 0 7 -11 11 -11
24 -1 26 22 36 3 34 -67 l-2 -67 -3 63 c-3 45 -8 62 -18 62 -16 0 -23 -21 -28
-85 -3 -37 -4 -36 -5 10 -4 94 -42 102 -42 9 0 -30 -4 -54 -10 -54 -6 0 -10
31 -10 73 0 47 3 67 9 58 8 -13 12 -13 26 -1z m145 0 c0 -6 9 -5 24 1 40 19
66 -3 66 -56 0 -48 -24 -75 -67 -75 -18 0 -23 -6 -23 -25 0 -14 -4 -25 -10
-25 -6 0 -10 38 -10 95 0 57 4 95 10 95 6 0 10 -4 10 -10z m230 -10 c39 -39
12 -120 -40 -120 -29 0 -60 36 -60 70 0 34 31 70 60 70 11 0 29 -9 40 -20z
m109 10 c30 15 61 4 61 -23 -1 -20 -2 -20 -11 -4 -12 20 -40 22 -57 5 -7 -7
-12 -34 -12 -60 0 -26 -4 -48 -10 -48 -6 0 -10 31 -10 73 0 44 4 67 9 58 7
-10 13 -11 30 -1z m821 -9 c5 -11 10 -42 10 -69 l0 -49 -47 -1 c-48 -1 -73 10
-73 34 0 22 30 44 61 44 24 0 30 4 27 18 -3 13 -13 17 -41 16 -35 -1 -45 5
-30 19 3 4 23 7 44 7 28 0 41 -5 49 -19z m168 -53 c2 -43 -1 -68 -8 -68 -6 0
-10 25 -10 61 0 54 -2 60 -15 49 -10 -8 -15 -30 -15 -61 0 -37 -4 -49 -15 -49
-12 0 -15 13 -15 61 0 37 -4 58 -10 54 -5 -3 -10 -31 -10 -61 0 -41 -4 -54
-15 -54 -12 0 -15 14 -15 69 l0 69 63 -2 62 -1 3 -67z m-4353 -44 c0 -10 -8
-20 -18 -22 -22 -4 -35 27 -16 39 20 12 34 5 34 -17z m923 -2 c3 -16 -2 -22
-16 -22 -24 0 -35 23 -19 39 16 16 31 8 35 -17z m-3240 -223 c-2 -6 -8 -10
-13 -10 -5 0 -11 4 -13 10 -2 6 4 11 13 11 9 0 15 -5 13 -11z m2062 2 c0 -5
-12 -11 -27 -13 -20 -2 -29 -9 -31 -25 -3 -20 1 -23 27 -23 17 0 31 -4 31 -10
0 -5 -13 -10 -30 -10 -29 0 -30 -1 -30 -50 0 -38 -4 -50 -15 -50 -11 0 -15 12
-15 50 0 47 -2 50 -25 50 -14 0 -25 5 -25 10 0 6 11 10 25 10 19 0 25 5 25 23
0 13 5 28 12 35 14 14 78 16 78 3z m100 -76 c0 -78 2 -85 20 -85 11 0 20 -4
20 -10 0 -5 -25 -10 -55 -10 -30 0 -55 5 -55 10 0 6 9 10 20 10 18 0 20 7 20
75 0 68 -2 75 -20 75 -11 0 -20 5 -20 10 0 6 16 10 35 10 l35 0 0 -85z m1280
76 c0 -5 -12 -11 -27 -13 -20 -2 -29 -9 -31 -25 -3 -20 1 -23 27 -23 17 0 31
-4 31 -10 0 -5 -13 -10 -30 -10 -29 0 -30 -1 -30 -50 0 -38 -4 -50 -15 -50
-11 0 -15 12 -15 50 0 43 -3 50 -20 50 -11 0 -20 5 -20 10 0 6 9 10 20 10 13
0 20 7 20 19 0 11 7 27 16 35 17 17 74 22 74 7z m-3930 -11 c0 -5 -16 -10 -35
-10 -30 0 -35 -3 -35 -23 0 -19 8 -25 38 -33 32 -8 37 -13 40 -40 2 -17 -3
-36 -11 -42 -21 -17 -77 -27 -77 -13 0 6 13 11 29 11 63 0 65 62 2 68 -30 3
-31 5 -31 48 l0 44 40 0 c22 0 40 -4 40 -10z m1550 -10 c0 -16 7 -20 30 -20
17 0 30 -4 30 -10 0 -5 -14 -10 -31 -10 -30 0 -30 -1 -27 -47 3 -44 5 -48 31
-51 36 -4 35 -22 -2 -22 -42 0 -61 24 -61 76 0 37 -3 44 -20 44 -11 0 -20 5
-20 10 0 6 8 10 19 10 10 0 21 9 24 20 3 11 10 20 16 20 6 0 11 -9 11 -20z
m2160 0 c0 -16 7 -20 30 -20 17 0 30 -4 30 -10 0 -5 -14 -10 -31 -10 -30 0
-30 -1 -27 -47 3 -44 5 -48 31 -51 38 -5 34 -22 -6 -22 -45 0 -57 15 -57 72 0
41 -3 48 -20 48 -11 0 -20 5 -20 10 0 6 9 10 20 10 13 0 20 7 20 20 0 11 7 20
15 20 8 0 15 -9 15 -20z m-2470 -5 c0 -10 10 -15 30 -15 17 0 30 -4 30 -10 0
-5 -14 -10 -31 -10 -30 0 -30 -1 -27 -47 3 -44 5 -48 31 -51 33 -4 36 -22 3
-22 -37 0 -56 25 -56 76 0 37 -3 44 -20 44 -11 0 -20 5 -20 10 0 6 9 10 20 10
11 0 20 7 20 15 0 8 5 15 10 15 6 0 10 -7 10 -15z m-750 -75 c0 -53 2 -60 20
-60 11 0 20 -4 20 -10 0 -5 -22 -10 -50 -10 -27 0 -50 5 -50 10 0 6 9 10 20
10 17 0 20 7 20 50 0 43 -3 50 -20 50 -11 0 -20 5 -20 10 0 6 14 10 30 10 l30
0 0 -60z m115 50 c14 12 18 12 25 0 7 -11 11 -11 24 -1 26 22 36 3 34 -67 l-2
-67 -3 63 c-3 45 -8 62 -18 62 -16 0 -23 -21 -28 -85 -3 -37 -4 -36 -5 10 -4
94 -42 102 -42 9 0 -30 -4 -54 -10 -54 -6 0 -10 31 -10 73 0 47 3 67 9 58 8
-13 12 -13 26 -1z m145 0 c0 -6 9 -5 24 1 40 19 66 -3 66 -56 0 -48 -24 -75
-67 -75 -18 0 -23 -6 -23 -25 0 -14 -4 -25 -10 -25 -6 0 -10 38 -10 95 0 57 4
95 10 95 6 0 10 -4 10 -10z m230 -10 c39 -39 12 -120 -40 -120 -29 0 -60 36
-60 70 0 34 31 70 60 70 11 0 29 -9 40 -20z m113 11 c30 14 57 -1 57 -30 -1
-13 -3 -13 -15 3 -12 16 -20 18 -43 10 -24 -8 -28 -16 -33 -64 -6 -54 -6 -54
-7 20 -1 43 2 69 7 62 6 -10 13 -11 34 -1z m661 -7 c9 -8 16 -26 16 -40 0 -22
-4 -24 -45 -24 -33 0 -45 -4 -45 -15 0 -16 42 -30 65 -22 8 4 17 2 20 -2 6
-11 -19 -21 -53 -21 -55 0 -82 67 -46 118 18 26 65 30 88 6z m154 4 c18 -16
16 -128 -3 -128 -10 0 -15 15 -17 57 -2 31 -8 58 -14 60 -23 8 -44 -28 -44
-73 0 -32 -4 -44 -15 -44 -12 0 -15 14 -15 68 l0 69 48 1 c26 0 53 -4 60 -10z
m152 -1 c0 -7 -12 -12 -27 -12 -41 0 -41 -18 1 -38 37 -18 46 -43 24 -65 -17
-17 -98 -16 -98 2 0 11 10 13 41 9 36 -5 41 -4 37 13 -2 10 -14 21 -27 24 -13
3 -30 15 -38 27 -12 18 -12 23 2 37 20 19 85 22 85 3z m153 1 c9 -7 19 -27 23
-43 8 -40 -26 -85 -64 -85 -33 0 -45 8 -61 38 -33 62 46 131 102 90z m165 0
c15 -13 16 -38 1 -38 -7 0 -17 7 -24 16 -9 14 -16 14 -33 5 -18 -10 -22 -21
-22 -61 0 -38 -4 -50 -15 -50 -12 0 -15 14 -15 68 l0 69 48 1 c26 0 53 -4 60
-10z m454 -5 c23 -20 24 -80 1 -105 -23 -26 -78 -24 -97 4 -49 70 34 157 96
101z m69 -34 l5 -44 13 33 c7 17 17 32 22 32 5 0 15 -15 23 -32 l14 -33 1 42
c1 38 14 63 28 50 2 -3 2 -35 -2 -71 -6 -55 -10 -66 -26 -66 -12 0 -21 10 -25
25 -3 14 -10 25 -14 25 -4 0 -11 -11 -14 -25 -6 -24 -29 -34 -39 -17 -3 4 -8
36 -12 71 -6 51 -5 63 6 59 8 -3 17 -24 20 -49z m380 41 c16 -9 19 -22 19 -73
0 -38 -4 -57 -9 -48 -7 10 -13 11 -30 1 -34 -17 -63 -4 -59 28 2 22 10 29 41
36 48 12 47 40 -2 44 -26 3 -31 6 -20 13 19 12 36 11 60 -1z m159 1 c0 -6 -14
-11 -32 -13 -45 -4 -45 -22 2 -41 45 -17 54 -49 21 -67 -25 -13 -68 -13 -76 0
-4 6 10 10 34 10 52 0 55 24 6 44 -39 17 -47 48 -17 65 22 13 62 14 62 2z
m-2952 -332 c-2 -6 -8 -10 -13 -10 -5 0 -11 4 -13 10 -2 6 4 11 13 11 9 0 15
-5 13 -11z m2062 2 c0 -5 -12 -11 -27 -13 -20 -2 -29 -9 -31 -25 -3 -20 1 -23
27 -23 17 0 31 -4 31 -10 0 -5 -13 -10 -30 -10 -29 0 -30 -1 -30 -50 0 -38 -4
-50 -15 -50 -11 0 -15 12 -15 50 0 47 -2 50 -25 50 -14 0 -25 5 -25 10 0 6 11
10 25 10 19 0 25 5 25 23 0 13 5 28 12 35 14 14 78 16 78 3z m100 -76 c0 -78
2 -85 20 -85 11 0 20 -4 20 -10 0 -5 -25 -10 -55 -10 -30 0 -55 5 -55 10 0 6
9 10 20 10 18 0 20 7 20 75 0 68 -2 75 -20 75 -11 0 -20 5 -20 10 0 6 16 10
35 10 l35 0 0 -85z m570 28 l1 -58 27 33 c15 18 36 32 46 32 17 0 16 -4 -11
-32 l-31 -33 29 -35 c38 -45 18 -52 -27 -9 l-34 33 0 -32 c0 -22 -5 -32 -15
-32 -12 0 -15 17 -15 95 0 78 3 95 15 95 12 0 15 -13 15 -57z m920 28 c0 -28
2 -29 33 -24 41 6 61 -15 61 -62 0 -58 -51 -91 -108 -69 -23 9 -24 184 -1 184
10 0 15 -10 15 -29z m470 -27 l0 -56 26 31 c14 17 35 31 47 31 19 0 18 -3 -12
-34 l-33 -34 32 -36 c42 -47 13 -51 -30 -3 l-29 32 -1 -32 c0 -23 -5 -33 -15
-33 -12 0 -15 17 -15 95 0 78 3 95 15 95 12 0 15 -13 15 -56z m540 -39 c0 -57
-4 -95 -10 -95 -5 0 -10 5 -10 12 0 9 -3 9 -12 0 -38 -38 -95 11 -84 73 7 36
30 55 65 55 16 0 21 6 21 25 0 16 6 25 15 25 12 0 15 -17 15 -95z m-5140 75
c0 -5 -13 -10 -29 -10 -20 0 -35 -8 -45 -22 -23 -32 -20 -40 12 -33 42 9 77
-22 68 -59 -9 -38 -48 -54 -81 -32 -48 32 -28 148 28 159 39 8 47 7 47 -3z
m1540 -10 c0 -16 7 -20 30 -20 17 0 30 -4 30 -10 0 -5 -14 -10 -31 -10 -30 0
-30 -1 -27 -47 3 -44 5 -48 31 -51 36 -4 35 -22 -2 -22 -42 0 -61 24 -61 76 0
37 -3 44 -20 44 -11 0 -20 5 -20 10 0 6 8 10 19 10 10 0 21 9 24 20 3 11 10
20 16 20 6 0 11 -9 11 -20z m4290 -17 l0 -36 28 36 c15 20 35 36 45 37 15 0
12 -8 -16 -42 l-35 -42 35 -48 c29 -40 32 -48 16 -48 -10 0 -29 17 -43 37
l-25 37 -3 -37 c-2 -24 -8 -37 -18 -37 -11 0 -14 18 -14 90 0 73 3 90 15 90
11 0 15 -11 15 -37z m-4600 12 c0 -10 10 -15 30 -15 17 0 30 -4 30 -10 0 -5
-14 -10 -31 -10 -30 0 -30 -1 -27 -47 3 -44 5 -48 31 -51 33 -4 36 -22 3 -22
-37 0 -56 25 -56 76 0 37 -3 44 -20 44 -11 0 -20 5 -20 10 0 6 9 10 20 10 11
0 20 7 20 15 0 8 5 15 10 15 6 0 10 -7 10 -15z m-750 -75 c0 -53 2 -60 20 -60
11 0 20 -4 20 -10 0 -5 -22 -10 -50 -10 -27 0 -50 5 -50 10 0 6 9 10 20 10 17
0 20 7 20 50 0 43 -3 50 -20 50 -11 0 -20 5 -20 10 0 6 14 10 30 10 l30 0 0
-60z m115 50 c14 12 18 12 25 0 7 -11 11 -11 24 -1 26 22 36 3 34 -67 l-2 -67
-3 63 c-3 45 -8 62 -18 62 -16 0 -23 -21 -28 -85 -3 -37 -4 -36 -5 10 -4 94
-42 102 -42 9 0 -30 -4 -54 -10 -54 -6 0 -10 31 -10 73 0 47 3 67 9 58 8 -13
12 -13 26 -1z m145 0 c0 -6 9 -5 24 1 40 19 66 -3 66 -56 0 -48 -24 -75 -67
-75 -18 0 -23 -6 -23 -25 0 -14 -4 -25 -10 -25 -6 0 -10 38 -10 95 0 57 4 95
10 95 6 0 10 -4 10 -10z m230 -10 c39 -39 12 -120 -40 -120 -29 0 -60 36 -60
70 0 34 31 70 60 70 11 0 29 -9 40 -20z m113 11 c30 14 57 -1 57 -30 -1 -13
-3 -13 -15 3 -12 16 -20 18 -43 10 -24 -8 -28 -16 -33 -64 -6 -54 -6 -54 -7
20 -1 43 2 69 7 62 6 -10 13 -11 34 -1z m661 -7 c9 -8 16 -26 16 -40 0 -22 -4
-24 -45 -24 -33 0 -45 -4 -45 -15 0 -16 42 -30 65 -22 8 4 17 2 20 -2 6 -11
-19 -21 -53 -21 -55 0 -82 67 -46 118 18 26 65 30 88 6z m154 4 c18 -16 16
-128 -3 -128 -10 0 -15 15 -17 57 -2 31 -8 58 -14 60 -23 8 -44 -28 -44 -73 0
-32 -4 -44 -15 -44 -12 0 -15 14 -15 68 l0 69 48 1 c26 0 53 -4 60 -10z m152
-1 c0 -7 -12 -12 -27 -12 -41 0 -41 -18 1 -38 37 -18 46 -43 24 -65 -17 -17
-98 -16 -98 2 0 11 10 13 41 9 36 -5 41 -4 37 13 -2 10 -14 21 -27 24 -13 3
-30 15 -38 27 -12 18 -12 23 2 37 20 19 85 22 85 3z m153 1 c9 -7 19 -27 23
-43 8 -40 -26 -85 -64 -85 -33 0 -45 8 -61 38 -33 62 46 131 102 90z m165 0
c15 -13 16 -38 1 -38 -7 0 -17 7 -24 16 -9 14 -16 14 -33 5 -18 -10 -22 -21
-22 -61 0 -38 -4 -50 -15 -50 -12 0 -15 14 -15 68 l0 69 48 1 c26 0 53 -4 60
-10z m454 -5 c23 -20 24 -80 1 -105 -23 -26 -78 -24 -97 4 -49 70 34 157 96
101z m69 -34 l5 -44 13 33 c7 17 17 32 22 32 5 0 15 -15 23 -32 l14 -33 1 42
c1 38 14 63 28 50 2 -3 2 -35 -2 -71 -6 -55 -10 -66 -26 -66 -12 0 -21 10 -25
25 -3 14 -10 25 -14 25 -4 0 -11 -11 -14 -25 -6 -24 -29 -34 -39 -17 -3 4 -8
36 -12 71 -6 51 -5 63 6 59 8 -3 17 -24 20 -49z m536 43 c15 -9 34 -58 26 -66
-4 -3 -26 -6 -50 -6 -23 0 -43 -4 -43 -9 0 -19 31 -33 60 -27 31 6 42 -7 14
-18 -56 -21 -104 9 -104 66 0 49 58 85 97 60z m93 -4 c0 -9 3 -9 12 0 25 25
78 8 78 -25 0 -7 -7 -13 -15 -13 -8 0 -15 7 -15 15 0 20 -19 19 -42 -2 -12
-11 -18 -30 -18 -60 0 -32 -4 -43 -15 -43 -12 0 -15 14 -15 70 0 56 3 70 15
70 8 0 15 -5 15 -12z m224 -4 c11 -10 16 -34 16 -68 l0 -53 -47 -1 c-51 -1
-73 10 -73 39 0 22 29 39 65 39 20 0 26 4 23 18 -3 13 -13 17 -41 16 -35 -1
-45 5 -30 19 12 13 72 7 87 -9z m156 3 c0 -7 -13 -12 -32 -12 -45 0 -45 -19 2
-38 41 -16 52 -41 28 -65 -17 -17 -98 -16 -98 2 0 9 12 13 36 12 42 -1 57 19
22 29 -25 8 -58 34 -58 46 0 4 7 15 16 23 19 19 84 22 84 3z m458 1 c7 -7 12
-37 12 -68 l0 -56 -50 -2 c-40 -2 -51 2 -60 18 -14 25 18 60 56 60 19 0 25 4
22 18 -3 12 -13 17 -36 16 -31 -2 -40 5 -25 19 11 12 68 8 81 -5z m162 -2 c0
-8 -8 -12 -23 -9 -27 5 -57 -19 -57 -47 0 -28 30 -52 57 -47 15 3 23 -1 23 -9
0 -18 -60 -19 -83 -1 -51 37 -17 127 49 127 22 0 34 -5 34 -14z m304 -8 c30
-43 21 -58 -34 -58 -49 0 -50 -1 -39 -21 9 -17 17 -20 46 -16 24 4 33 2 30 -6
-5 -18 -69 -20 -91 -4 -26 19 -27 79 -1 107 24 27 70 26 89 -2z m154 10 c18
-16 16 -128 -3 -128 -10 0 -15 15 -17 57 -2 31 -8 58 -14 60 -23 8 -44 -28
-44 -73 0 -32 -4 -44 -15 -44 -12 0 -15 14 -15 68 l0 69 48 1 c26 0 53 -4 60
-10z m456 -4 c18 -17 23 -124 6 -124 -5 0 -10 4 -10 9 0 5 -13 4 -29 -2 -36
-13 -64 5 -59 37 2 16 14 23 46 30 56 13 54 40 -3 44 -28 3 -35 6 -24 13 22
14 56 11 73 -7z m151 6 c4 -6 -8 -10 -29 -10 -47 0 -48 -25 -2 -44 39 -16 48
-28 40 -50 -7 -18 -67 -32 -86 -19 -9 5 0 10 27 13 50 6 53 29 5 45 -40 13
-51 42 -24 62 21 15 60 17 69 3z m-2486 -89 c17 -11 7 -41 -13 -41 -19 0 -29
17 -22 35 6 17 15 18 35 6z m926 -17 c0 -10 -8 -20 -18 -22 -22 -4 -35 27 -16
39 20 12 34 5 34 -17z m-2307 -227 c2 -12 -3 -17 -17 -17 -12 0 -21 6 -21 13
0 31 32 34 38 4z m-1240 2 c-2 -6 -8 -10 -13 -10 -5 0 -11 4 -13 10 -2 6 4 11
13 11 9 0 15 -5 13 -11z m-468 -5 c0 -15 -81 -177 -86 -172 -3 3 11 38 30 77
20 39 36 73 36 76 0 3 -20 5 -45 5 -25 0 -45 5 -45 10 0 6 25 10 55 10 30 0
55 -3 55 -6z m1530 -14 c0 -16 7 -20 30 -20 17 0 30 -4 30 -10 0 -5 -14 -10
-31 -10 -30 0 -30 -1 -27 -47 3 -44 5 -48 31 -51 36 -4 35 -22 -2 -22 -42 0
-61 24 -61 76 0 37 -3 44 -20 44 -11 0 -20 5 -20 10 0 6 8 10 19 10 10 0 21 9
24 20 3 11 10 20 16 20 6 0 11 -9 11 -20z m-310 -5 c0 -10 10 -15 30 -15 17 0
30 -4 30 -10 0 -5 -14 -10 -31 -10 -30 0 -30 -1 -27 -47 3 -44 5 -48 31 -51
33 -4 36 -22 3 -22 -37 0 -56 25 -56 76 0 37 -3 44 -20 44 -11 0 -20 5 -20 10
0 6 9 10 20 10 11 0 20 7 20 15 0 8 5 15 10 15 6 0 10 -7 10 -15z m-750 -75
c0 -53 2 -60 20 -60 11 0 20 -4 20 -10 0 -5 -22 -10 -50 -10 -27 0 -50 5 -50
10 0 6 9 10 20 10 17 0 20 7 20 50 0 43 -3 50 -20 50 -11 0 -20 5 -20 10 0 6
14 10 30 10 l30 0 0 -60z m115 50 c14 12 18 12 25 0 7 -11 11 -11 24 -1 26 22
36 3 34 -67 l-2 -67 -3 63 c-3 45 -8 62 -18 62 -16 0 -23 -21 -28 -85 -3 -37
-4 -36 -5 10 -4 94 -42 102 -42 9 0 -30 -4 -54 -10 -54 -6 0 -10 31 -10 73 0
47 3 67 9 58 8 -13 12 -13 26 -1z m145 0 c0 -6 9 -5 24 1 40 19 66 -3 66 -56
0 -48 -24 -75 -67 -75 -18 0 -23 -6 -23 -25 0 -14 -4 -25 -10 -25 -6 0 -10 38
-10 95 0 57 4 95 10 95 6 0 10 -4 10 -10z m230 -10 c39 -39 12 -120 -40 -120
-29 0 -60 36 -60 70 0 34 31 70 60 70 11 0 29 -9 40 -20z m113 11 c30 14 57
-1 57 -30 -1 -13 -3 -13 -15 3 -12 16 -20 18 -43 10 -24 -8 -28 -16 -33 -64
-6 -54 -6 -54 -7 20 -1 43 2 69 7 62 6 -10 13 -11 34 -1z m637 -51 c0 -53 2
-60 20 -60 11 0 20 -4 20 -10 0 -6 -27 -10 -60 -10 -33 0 -60 4 -60 10 0 6 11
10 25 10 23 0 25 3 25 50 0 43 -3 50 -20 50 -11 0 -20 5 -20 10 0 6 16 10 35
10 l35 0 0 -60z m192 46 c4 -6 8 -37 8 -68 0 -45 -3 -58 -15 -58 -12 0 -15 13
-15 61 0 37 -4 58 -10 54 -5 -3 -10 -31 -10 -61 0 -41 -4 -54 -15 -54 -12 0
-15 13 -15 61 0 54 -2 60 -15 49 -10 -8 -15 -30 -15 -61 0 -37 -4 -49 -15 -49
-12 0 -15 14 -15 69 l0 68 63 0 c34 0 65 -5 69 -11z m142 -8 c30 -43 21 -58
-34 -58 -49 0 -50 -1 -39 -21 9 -17 17 -20 46 -16 24 4 33 2 30 -6 -5 -18 -69
-20 -91 -4 -26 19 -27 79 -1 107 24 27 70 26 89 -2z"/>
<path d="M5102 3628 c-7 -7 -12 -23 -12 -37 1 -71 53 -64 58 8 3 34 0 41 -15
41 -11 0 -24 -5 -31 -12z"/>
<path d="M7263 3633 c-16 -6 -17 -79 -2 -88 19 -12 49 26 49 62 0 33 -13 40
-47 26z"/>
<path d="M1698 3615 c-16 -35 3 -75 35 -75 30 0 47 18 47 50 0 52 -61 71 -82
25z"/>
<path d="M2326 3624 c-9 -24 -9 -24 29 -24 33 0 35 2 25 20 -13 24 -45 26 -54
4z"/>
<path d="M2792 3628 c-17 -17 -15 -63 4 -79 22 -18 48 0 52 35 6 45 -29 71
-56 44z"/>
<path d="M3398 3615 c-15 -33 3 -75 32 -75 12 0 25 10 32 25 15 33 -3 75 -32
75 -12 0 -25 -10 -32 -25z"/>
<path d="M4020 3621 c-10 -19 -8 -21 25 -21 29 0 36 3 33 18 -5 25 -44 27 -58
3z"/>
<path d="M4324 3569 c-10 -17 12 -32 35 -24 29 9 27 35 -3 35 -14 0 -28 -5
-32 -11z"/>
<path d="M4938 3615 c-15 -33 3 -75 32 -75 12 0 25 10 32 25 15 33 -3 75 -32
75 -12 0 -25 -10 -32 -25z"/>
<path d="M5250 3621 c-10 -19 -8 -21 25 -21 29 0 36 3 33 18 -5 25 -44 27 -58
3z"/>
<path d="M6182 3628 c-6 -6 -12 -29 -12 -51 0 -37 1 -38 33 -35 31 3 32 5 32
48 0 37 -3 45 -20 48 -11 1 -26 -3 -33 -10z"/>
<path d="M6318 3615 c-16 -35 3 -75 35 -75 30 0 47 18 47 50 0 52 -61 71 -82
25z"/>
<path d="M7102 3628 c-17 -17 -15 -63 4 -79 22 -18 48 0 52 35 6 45 -29 71
-56 44z"/>
<path d="M7412 3628 c-20 -20 -14 -28 24 -28 29 0 35 3 30 16 -3 9 -6 18 -6
20 0 9 -37 3 -48 -8z"/>
<path d="M8184 3632 c-18 -12 -24 -41 -14 -67 17 -45 70 -26 70 25 0 40 -28
61 -56 42z"/>
<path d="M8954 3632 c-18 -12 -24 -41 -14 -67 17 -45 70 -26 70 25 0 40 -28
61 -56 42z"/>
<path d="M5412 3248 c-14 -14 -16 -74 -2 -83 5 -3 19 -1 30 5 28 15 29 90 2
90 -10 0 -23 -5 -30 -12z"/>
<path d="M9412 3248 c-7 -7 -12 -23 -12 -37 1 -71 53 -64 58 8 3 34 0 41 -15
41 -11 0 -24 -5 -31 -12z"/>
<path d="M2008 3235 c-16 -35 3 -75 35 -75 30 0 47 18 47 50 0 52 -61 71 -82
25z"/>
<path d="M2636 3244 c-9 -24 -9 -24 29 -24 33 0 35 2 25 20 -13 24 -45 26 -54
4z"/>
<path d="M3104 3252 c-18 -12 -24 -41 -14 -67 17 -45 70 -26 70 25 0 40 -28
61 -56 42z"/>
<path d="M3708 3235 c-15 -33 3 -75 32 -75 29 0 47 42 32 75 -7 15 -20 25 -32
25 -12 0 -25 -10 -32 -25z"/>
<path d="M4332 3248 c-20 -20 -14 -28 24 -28 29 0 35 3 30 16 -3 9 -6 18 -6
20 0 9 -37 3 -48 -8z"/>
<path d="M4634 3189 c-10 -17 12 -32 35 -24 29 9 27 35 -3 35 -14 0 -28 -5
-32 -11z"/>
<path d="M5252 3248 c-17 -17 -15 -63 3 -78 8 -6 23 -9 35 -5 15 5 20 15 20
45 0 25 -5 40 -16 44 -22 8 -28 8 -42 -6z"/>
<path d="M5560 3241 c-10 -19 -8 -21 25 -21 29 0 36 3 33 18 -5 25 -44 27 -58
3z"/>
<path d="M6486 3241 c-26 -29 -18 -75 15 -79 33 -4 51 18 47 60 -4 40 -35 49
-62 19z"/>
<path d="M6628 3235 c-16 -35 3 -75 35 -75 30 0 47 18 47 50 0 52 -61 71 -82
25z"/>
<path d="M7412 3248 c-20 -20 -14 -28 24 -28 29 0 35 3 30 16 -3 9 -6 18 -6
20 0 9 -37 3 -48 -8z"/>
<path d="M7562 3248 c-17 -17 -15 -63 3 -78 23 -19 45 5 45 51 0 31 -4 39 -18
39 -10 0 -23 -5 -30 -12z"/>
<path d="M7872 3248 c-20 -20 -14 -28 24 -28 29 0 35 3 30 16 -3 9 -6 18 -6
20 0 9 -37 3 -48 -8z"/>
<path d="M8484 3189 c-10 -17 12 -32 35 -24 29 9 27 35 -3 35 -14 0 -28 -5
-32 -11z"/>
<path d="M9248 3235 c-15 -33 3 -75 32 -75 29 0 47 42 32 75 -7 15 -20 25 -32
25 -12 0 -25 -10 -32 -25z"/>
<path d="M9567 3254 c-17 -17 -5 -34 24 -34 24 0 30 4 27 18 -3 17 -38 29 -51
16z"/>
<path d="M13272 2868 c-6 -6 -12 -29 -12 -50 0 -31 4 -38 19 -38 27 0 43 24
39 62 -3 35 -25 47 -46 26z"/>
<path d="M13412 2868 c-17 -17 -15 -63 3 -78 23 -19 45 5 45 51 0 31 -4 39
-18 39 -10 0 -23 -5 -30 -12z"/>
<path d="M7250 2850 c0 -77 12 -88 50 -50 39 39 16 120 -33 120 -14 0 -17 -11
-17 -70z"/>
<path d="M2008 2855 c-16 -35 3 -75 35 -75 30 0 47 18 47 50 0 52 -61 71 -82
25z"/>
<path d="M2636 2864 c-9 -24 -9 -24 29 -24 33 0 35 2 25 20 -13 24 -45 26 -54
4z"/>
<path d="M3104 2872 c-18 -12 -24 -41 -14 -67 17 -45 70 -26 70 25 0 40 -28
61 -56 42z"/>
<path d="M3708 2855 c-15 -33 3 -75 32 -75 29 0 47 42 32 75 -7 15 -20 25 -32
25 -12 0 -25 -10 -32 -25z"/>
<path d="M4332 2868 c-20 -20 -14 -28 24 -28 29 0 35 3 30 16 -3 9 -6 18 -6
20 0 9 -37 3 -48 -8z"/>
<path d="M4634 2809 c-10 -17 12 -32 35 -24 29 9 27 35 -3 35 -14 0 -28 -5
-32 -11z"/>
<path d="M5253 2805 c-3 -9 -3 -18 0 -21 10 -10 47 7 47 22 0 19 -39 18 -47
-1z"/>
<path d="M5560 2861 c-10 -19 -8 -21 25 -21 29 0 36 3 33 18 -5 25 -44 27 -58
3z"/>
<path d="M6486 2861 c-26 -29 -18 -75 15 -79 33 -4 51 18 47 60 -4 40 -35 49
-62 19z"/>
<path d="M6628 2855 c-16 -35 3 -75 35 -75 30 0 47 18 47 50 0 52 -61 71 -82
25z"/>
<path d="M7412 2868 c-20 -20 -14 -28 24 -28 29 0 35 3 30 16 -3 9 -6 18 -6
20 0 9 -37 3 -48 -8z"/>
<path d="M7872 2868 c-20 -20 -14 -28 24 -28 29 0 35 3 30 16 -3 9 -6 18 -6
20 0 9 -37 3 -48 -8z"/>
<path d="M8634 2809 c-10 -17 12 -32 35 -24 29 9 27 35 -3 35 -14 0 -28 -5
-32 -11z"/>
<path d="M9100 2861 c-10 -19 -8 -21 25 -21 29 0 36 3 33 18 -5 25 -44 27 -58
3z"/>
<path d="M10038 2869 c-12 -7 -18 -22 -18 -49 0 -36 3 -40 25 -40 32 0 52 42
36 77 -12 25 -18 27 -43 12z"/>
<path d="M10952 2868 c-17 -17 -15 -63 4 -79 22 -18 48 0 52 35 6 45 -29 71
-56 44z"/>
<path d="M11413 2805 c-3 -9 -3 -18 0 -21 10 -10 47 7 47 22 0 19 -39 18 -47
-1z"/>
<path d="M11722 2868 c-20 -20 -14 -28 24 -28 29 0 35 3 30 16 -3 9 -6 18 -6
20 0 9 -37 3 -48 -8z"/>
<path d="M12024 2809 c-10 -17 12 -32 35 -24 29 9 27 35 -3 35 -14 0 -28 -5
-32 -11z"/>
<path d="M12337 2874 c-17 -17 -5 -34 24 -34 24 0 30 4 27 18 -3 17 -38 29
-51 16z"/>
<path d="M12944 2809 c-10 -17 12 -32 35 -24 29 9 27 35 -3 35 -14 0 -28 -5
-32 -11z"/>
<path d="M13564 2809 c-10 -17 12 -32 35 -24 29 9 27 35 -3 35 -14 0 -28 -5
-32 -11z"/>
<path d="M8033 2493 c-16 -6 -17 -79 -2 -88 19 -12 49 26 49 62 0 33 -13 40
-47 26z"/>
<path d="M1203 2495 l-33 -50 31 -3 c17 -2 33 -1 36 1 2 3 3 27 1 53 l-3 48
-32 -49z"/>
<path d="M7882 2491 c-17 -47 -15 -51 13 -51 28 0 30 11 11 55 l-12 30 -12
-34z"/>
<path d="M2008 2475 c-16 -35 3 -75 35 -75 30 0 47 18 47 50 0 52 -61 71 -82
25z"/>
<path d="M2636 2484 c-9 -24 -9 -24 29 -24 33 0 35 2 25 20 -13 24 -45 26 -54
4z"/>
<path d="M3104 2492 c-18 -12 -24 -41 -14 -67 17 -45 70 -26 70 25 0 40 -28
61 -56 42z"/>
<path d="M3708 2475 c-15 -33 3 -75 32 -75 29 0 47 42 32 75 -7 15 -20 25 -32
25 -12 0 -25 -10 -32 -25z"/>
<path d="M4332 2488 c-20 -20 -14 -28 24 -28 29 0 35 3 30 16 -3 9 -6 18 -6
20 0 9 -37 3 -48 -8z"/>
<path d="M4634 2429 c-10 -17 12 -32 35 -24 29 9 27 35 -3 35 -14 0 -28 -5
-32 -11z"/>
<path d="M5102 2488 c-17 -17 -15 -63 4 -79 22 -18 48 0 52 35 6 45 -29 71
-56 44z"/>
<path d="M5262 2488 c-6 -6 -12 -29 -12 -50 0 -31 4 -38 19 -38 27 0 43 24 39
62 -3 35 -25 47 -46 26z"/>
<path d="M6176 2484 c-9 -24 -9 -24 29 -24 33 0 35 2 25 20 -13 24 -45 26 -54
4z"/>
<path d="M7102 2488 c-7 -7 -12 -29 -12 -50 0 -36 2 -38 30 -38 23 0 33 6 42
25 22 49 -25 98 -60 63z"/>
<path d="M7251 2486 c-31 -37 9 -103 47 -80 21 14 29 74 10 85 -20 13 -44 11
-57 -5z"/>
<path d="M8174 2429 c-10 -17 12 -32 35 -24 29 9 27 35 -3 35 -14 0 -28 -5
-32 -11z"/>
<path d="M2022 2108 c-7 -7 -12 -29 -12 -50 0 -36 2 -38 30 -38 23 0 33 6 42
25 22 49 -25 98 -60 63z"/>
<path d="M2171 2106 c-31 -37 9 -103 47 -80 21 14 29 74 10 85 -20 13 -44 11
-57 -5z"/>
<path d="M2947 2114 c-17 -17 -5 -34 24 -34 24 0 30 4 27 18 -3 17 -38 29 -51
16z"/>
<path d="M3398 2095 c-15 -33 3 -75 32 -75 12 0 25 10 32 25 15 33 -3 75 -32
75 -12 0 -25 -10 -32 -25z"/>
<path d="M4022 2108 c-17 -17 -15 -63 3 -78 8 -6 23 -9 35 -5 15 5 20 15 20
45 0 25 -5 40 -16 44 -22 8 -28 8 -42 -6z"/>
<path d="M4474 2049 c-10 -18 13 -32 40 -25 37 9 34 36 -3 36 -17 0 -33 -5
-37 -11z"/>
<path d="M5417 1722 c-9 -10 -17 -33 -17 -51 0 -29 3 -32 27 -29 33 4 54 48
37 75 -15 25 -28 26 -47 5z"/>
<path d="M6332 1728 c-7 -7 -12 -23 -12 -37 1 -71 53 -64 58 8 3 34 0 41 -15
41 -11 0 -24 -5 -31 -12z"/>
<path d="M1203 1710 c-29 -12 -30 -44 -1 -64 19 -13 25 -14 43 -2 26 18 30 40
10 60 -18 18 -21 18 -52 6z"/>
<path d="M2022 1728 c-7 -7 -12 -29 -12 -50 0 -36 2 -38 30 -38 23 0 33 6 42
25 22 49 -25 98 -60 63z"/>
<path d="M2171 1726 c-31 -37 9 -103 47 -80 21 14 29 74 10 85 -20 13 -44 11
-57 -5z"/>
<path d="M2947 1734 c-17 -17 -5 -34 24 -34 24 0 30 4 27 18 -3 17 -38 29 -51
16z"/>
<path d="M3398 1715 c-15 -33 3 -75 32 -75 12 0 25 10 32 25 15 33 -3 75 -32
75 -12 0 -25 -10 -32 -25z"/>
<path d="M4022 1728 c-17 -17 -15 -63 3 -78 8 -6 23 -9 35 -5 15 5 20 15 20
45 0 25 -5 40 -16 44 -22 8 -28 8 -42 -6z"/>
<path d="M4636 1724 c-9 -24 -9 -24 29 -24 33 0 35 2 25 20 -13 24 -45 26 -54
4z"/>
<path d="M4944 1669 c-3 -6 -1 -16 5 -22 13 -13 42 0 49 21 5 15 -44 16 -54 1z"/>
<path d="M5554 1669 c-10 -17 12 -32 35 -24 29 9 27 35 -3 35 -14 0 -28 -5
-32 -11z"/>
<path d="M6020 1721 c-10 -19 -8 -21 25 -21 29 0 36 3 33 18 -5 25 -44 27 -58
3z"/>
<path d="M6637 1673 c-14 -13 -6 -33 12 -33 30 0 51 11 51 26 0 14 -51 20 -63
7z"/>
<path d="M2022 1348 c-7 -7 -12 -29 -12 -50 0 -36 2 -38 30 -38 23 0 33 6 42
25 22 49 -25 98 -60 63z"/>
<path d="M2171 1346 c-31 -37 9 -103 47 -80 21 14 29 74 10 85 -20 13 -44 11
-57 -5z"/>
<path d="M3250 1341 c-10 -19 -8 -21 25 -21 29 0 36 3 33 18 -5 25 -44 27 -58
3z"/>
</g>
</svg>
